<svg viewBox="562.8497078238341 803.4399999999999 581.3471160621762 620.4" version="1.1" xmlns:xlink="http://www.w3.org/1999/xlink" xmlns="http://www.w3.org/2000/svg" style="max-height: 500px" width="581.3471160621762" height="620.4">
<g>
<path fill-rule="evenodd" fill="#134e8c" d="M 306 486.0266 C 355.7117 486.0266 396.0266 445.7117 396.0266 396 C 396.0266 346.2883 355.7117 305.9734 306 305.9734 C 256.2883 305.9734 215.9734 346.2883 215.9734 396 C 215.9734 445.7117 256.2883 486.0266 306 486.0266 Z M 306 466.4375 C 344.8947 466.4375 376.4375 434.8947 376.4375 396 C 376.4375 357.1053 344.8947 325.5625 306 325.5625 C 267.1053 325.5625 235.5625 357.1053 235.5625 396 C 235.5625 434.8947 267.1053 466.4375 306 466.4375" transform="matrix(2.7777777,0,0,-2.7777777,0,2200)"/>
<path fill-rule="evenodd" fill="#134e8c" d="M 306 464.0669 C 343.586 464.0669 374.0669 433.586 374.0669 396 C 374.0669 358.414 343.586 327.9331 306 327.9331 C 268.414 327.9331 237.9331 358.414 237.9331 396 C 237.9331 433.586 268.414 464.0669 306 464.0669 Z M 306 462.6099 C 342.7815 462.6099 372.6099 432.7815 372.6099 396 C 372.6099 359.2185 342.7815 329.3901 306 329.3901 C 269.2185 329.3901 239.3901 359.2185 239.3901 396 C 239.3901 432.7815 269.2185 462.6099 306 462.6099" transform="matrix(2.7777777,0,0,-2.7777777,0,2200)"/>
<path fill-rule="evenodd" fill="#134e8c" d="M 314.1513 457.287 L 314.752 456.6061 C 314.752 456.6061 336.4251 433.266 344.344 424.5134 C 363.5447 407.8329 361.4706 380.9024 344.6668 364.6692 C 340.9914 361.1188 336.5878 355.9771 332.257 353.2422 L 323.0629 373.2154 C 319.4595 381.0447 317.3134 390.7692 306.1996 390.3239 L 306.1996 390.3046 C 306.1321 390.3086 306.0669 390.3109 305.9997 390.3143 C 305.9328 390.3109 305.8676 390.3086 305.8002 390.3046 L 305.8002 390.3239 C 294.6864 390.7692 292.5405 381.0447 288.9369 373.2154 L 279.7427 353.2422 C 275.4122 355.9771 271.0083 361.1188 267.3329 364.6692 C 250.5291 380.9024 248.4553 407.8329 267.6557 424.5134 C 275.5749 433.266 297.2477 456.6061 297.2477 456.6061 L 297.8487 457.2873 L 297.8487 400.8971 C 297.8487 396.6562 301.5167 393.1866 306 393.1866 C 310.4833 393.1866 314.1513 396.6562 314.1513 400.8971 Z" transform="matrix(2.7777777,0,0,-2.7777777,0,2200)"/>
<symbol id="font_0_2">
<path d="M .42000003 .24400002 L .42000003 .22400002 C .421 .143 .40600003 .086 .375 .051000004 C .343 .017 .291 0 .21599999 0 C .137 0 .08100001 .018000002 .049000004 .056000007 C .016000003 .093 0 .157 0 .24800001 L 0 .46 C 0 .55200007 .016000003 .616 .049000004 .653 C .08100001 .69100007 .137 .70900008 .21599999 .70900008 C .285 .70900008 .336 .69200006 .36900003 .657 C .4 .625 .416 .57600006 .41500003 .512 L .41500003 .499 L .41500003 .47800002 L .275 .47800002 L .275 .499 C .276 .535 .271 .56200006 .261 .579 C .25100003 .597 .236 .606 .21599999 .606 C .19 .606 .171 .596 .15900001 .575 C .14700002 .555 .141 .522 .141 .476 L .141 .263 C .141 .20400001 .14700002 .16200002 .15799999 .13800001 C .169 .115 .188 .103 .21599999 .103 C .238 .103 .254 .113000009 .26500003 .133 C .275 .15300001 .28 .18400002 .279 .22400002 L .279 .24400002 L .42000003 .24400002 Z"/>
</symbol>

<symbol id="font_0_3">
<path d="M .141 0 L .141 0 L .071 0 L 0 0 L 0 .689 L .07 .689 L .141 .689 L .141 .372 L .293 .689 L .367 .689 L .442 .689 L .292 .386 L .44500003 0 L .368 0 L .291 0 L .141 .372 L .141 0 Z"/>
</symbol>

<path fill="#134e8c" d="M 309.3333 361.421 C 309.3333 360.3674 309.0594 359.5768 308.5121 359.0527 C 307.9644 358.5283 307.1429 358.2649 306.0505 358.2649 C 304.9554 358.2649 304.134 358.5285 303.5866 359.0527 C 303.0395 359.5765 302.7631 360.3674 302.7654 361.421 L 302.7912 372.3576 L 302.7654 372.3318 L 304.9554 372.3576 L 304.9296 369.102 L 304.9296 361.2762 C 304.9296 360.7466 305.0124 360.3776 305.1751 360.1681 C 305.3404 359.9592 305.6295 359.8532 306.0505 359.8532 C 306.4689 359.8532 306.7591 359.9586 306.9235 360.1681 C 307.0871 360.3767 307.167 360.7466 307.1687 361.2762 L 307.1945 369.1276 L 307.1687 372.3837 L 309.3591 372.4092 L 309.3333 369.102 Z" transform="matrix(2.7777777,0,0,-2.7777777,0,2200)"/>
<path fill-rule="evenodd" fill="#134e8c" d="M 306 384.9914 C 307.9772 384.9914 309.5804 383.3881 309.5804 381.4109 C 309.5804 379.4338 307.9772 377.8305 306 377.8305 C 304.0228 377.8305 302.4196 379.4338 302.4196 381.4109 C 302.4196 383.3881 304.0228 384.9914 306 384.9914" transform="matrix(2.7777777,0,0,-2.7777777,0,2200)"/>
<path fill-rule="evenodd" fill="#134e8c" d="M 305.4807 388.2696 L 306.3634 388.2696 L 306.3634 385.704 L 305.4807 385.704 Z" transform="matrix(2.7777777,0,0,-2.7777777,0,2200)"/>
<path fill-rule="evenodd" fill="#134e8c" d="M 305.4807 377.1071 L 306.3634 377.1071 L 306.3634 374.5412 L 305.4807 374.5412 Z" transform="matrix(2.7777777,0,0,-2.7777777,0,2200)"/>
<path fill-rule="evenodd" fill="#134e8c" d="M 312.7864 381.8472 L 312.7864 380.9645 L 310.2205 380.9645 L 310.2205 381.8472 Z" transform="matrix(2.7777777,0,0,-2.7777777,0,2200)"/>
<path fill-rule="evenodd" fill="#134e8c" d="M 301.6236 381.8472 L 301.6236 380.9645 L 299.058 380.9645 L 299.058 381.8472 Z" transform="matrix(2.7777777,0,0,-2.7777777,0,2200)"/>
<path fill-rule="evenodd" fill="#134e8c" d="M 311.0882 376.8642 L 310.464 376.24 L 308.6495 378.0541 L 309.2737 378.6783 Z" transform="matrix(2.7777777,0,0,-2.7777777,0,2200)"/>
<path fill-rule="evenodd" fill="#134e8c" d="M 303.1948 384.7572 L 302.5706 384.133 L 300.7565 385.9475 L 301.3807 386.5717 Z" transform="matrix(2.7777777,0,0,-2.7777777,0,2200)"/>
<path fill-rule="evenodd" fill="#134e8c" d="M 310.4637 386.5714 L 311.0879 385.9472 L 309.2734 384.133 L 308.6495 384.7572 Z" transform="matrix(2.7777777,0,0,-2.7777777,0,2200)"/>
<path fill-rule="evenodd" fill="#134e8c" d="M 302.5706 378.6783 L 303.1948 378.0541 L 301.3804 376.2397 L 300.7562 376.8639 Z" transform="matrix(2.7777777,0,0,-2.7777777,0,2200)"/>
<path fill-rule="evenodd" fill="#134e8c" d="M 303.8981 339.7442 C 303.3544 341.9575 301.6083 342.9833 299.2241 342.6001 C 296.562 342.1718 294.5837 340.4296 292.002 339.8426 C 291.8458 339.8071 291.6901 339.7742 291.5342 339.7442 Z M 285.4397 339.7442 L 285.4653 341.8271 C 285.5557 341.8166 285.6492 341.8075 285.7456 341.8016 L 286.3035 344.3284 C 288.0391 344.3902 290.2255 345.1878 291.8534 345.8778 C 293.9142 346.7511 295.5577 347.982 297.858 348.5682 C 299.4911 348.9843 301.0462 348.8754 302.5338 348.3709 C 303.8295 347.9315 305.0972 347.1316 306.0099 345.956 C 306.9224 347.1316 308.1906 347.9315 309.4863 348.3709 C 310.974 348.8754 312.529 348.9843 314.1621 348.5682 C 316.4624 347.982 318.1059 346.7511 320.1667 345.8778 C 321.7946 345.1878 323.981 344.3902 325.7167 344.3284 L 326.2745 341.8016 C 326.3709 341.8075 326.4644 341.8166 326.5549 341.8271 L 326.5804 339.7442 L 329.646 339.7442 L 329.646 338.4731 L 282.5552 338.4731 L 282.5552 339.7442 Z M 320.4859 339.7442 C 320.33 339.7742 320.1744 339.8071 320.0182 339.8426 C 317.4364 340.4296 315.4581 342.1718 312.7961 342.6001 C 310.4118 342.9833 308.6657 341.9575 308.122 339.7442 Z M 286.4925 341.7979 C 288.2908 341.8775 290.6668 342.5372 292.5116 343.3178 C 294.5486 344.1801 297.0666 346.0263 299.3199 346.1159 C 302.9162 346.2596 305.6443 343.2081 306.0099 342.779 C 306.3753 343.2081 309.1039 346.2596 312.7003 346.1159 C 314.9535 346.0263 317.4715 344.1801 319.5085 343.3178 C 321.3533 342.5372 323.7293 341.8775 325.5276 341.7979 L 325.1597 343.6146 C 321.9333 343.7813 318.3157 345.9322 315.29 347.2863 C 312.8729 348.3683 310.2007 348.1452 307.9497 346.5 C 307.01 345.8134 306.2906 345.1561 306.051 344.6762 L 306.0519 344.4185 C 306.0465 344.4698 306.0317 344.5245 306.0096 344.5824 C 305.9875 344.5245 305.9736 344.4701 305.9683 344.4185 L 305.9691 344.6751 C 305.7307 345.155 305.011 345.8126 304.0705 346.5 C 301.8195 348.1452 299.1472 348.3683 296.7301 347.2863 C 293.7044 345.9322 290.0869 343.7813 286.8605 343.6146 Z" transform="matrix(2.7777777,0,0,-2.7777777,0,2200)"/>
<path fill="#134e8c" d="M 296.3565 354.4676 L 295.6277 354.4676 L 295.6277 351.5604 L 294.9795 351.9975 L 294.9795 352.923 C 294.7997 352.9375 294.6197 352.9933 294.4403 353.0906 C 294.4256 353.0954 294.4111 353.105 294.3964 353.1195 C 294.4159 353.0758 294.4278 353.0395 294.4329 353.0103 C 294.4621 352.923 294.4766 352.8281 294.4766 352.7263 C 294.4766 352.493 294.3941 352.3085 294.2289 352.1724 C 294.0639 352.0363 293.862 351.9683 293.6239 351.9683 C 293.1143 351.9683 292.6891 352.2793 292.3489 352.9012 C 292.3152 352.9641 292.2494 353.105 292.1525 353.3236 L 292.4365 353.4548 C 292.451 353.416 292.4753 353.3454 292.5094 353.2436 C 292.621 352.9423 292.803 352.7359 293.0559 352.624 C 293.1724 352.5707 293.2841 352.544 293.3909 352.544 C 293.6778 352.544 293.8694 352.6461 293.9666 352.8499 C 294.0055 352.9327 294.0248 353.0078 294.0248 353.0758 C 294.0248 353.1682 294.0029 353.2629 293.9593 353.3601 C 293.9545 353.3746 293.9326 353.4134 293.8938 353.4766 L 293.5293 353.302 C 293.3595 353.2436 293.233 353.2071 293.1506 353.1926 L 292.8008 353.717 L 293.449 353.9358 C 293.7311 354.0328 293.872 354.1567 293.872 354.3072 C 293.872 354.458 293.7189 354.5331 293.4128 354.5331 C 293.2571 354.5331 293.0995 354.4968 292.9394 354.4237 C 292.8858 354.3996 292.82 354.3633 292.7424 354.3148 L 292.4147 354.8829 C 292.7497 355.0286 293.0289 355.1017 293.2526 355.1017 C 293.4859 355.1017 293.6923 355.0297 293.872 354.8866 C 294.0517 354.7431 294.1852 354.5575 294.2728 354.3293 C 294.3068 354.2417 294.3235 354.1544 294.3235 354.0668 C 294.3235 353.9551 294.2943 353.8457 294.2362 353.7391 C 294.2167 353.7099 294.1875 353.6685 294.1486 353.6152 C 294.2118 353.5812 294.2507 353.5594 294.2654 353.5495 C 294.3575 353.5058 294.4477 353.484 294.535 353.484 C 294.6611 353.484 294.7731 353.5155 294.87 353.5787 C 294.8992 353.5982 294.9358 353.6297 294.9795 353.6734 L 294.9795 354.4676 L 294.5568 354.4676 L 294.2507 355.0433 L 296.0507 355.0433 Z M 298.3167 352.8428 L 297.2237 352.8428 L 297.2237 352.6461 C 297.2237 352.6072 297.2214 352.5755 297.2166 352.5514 C 297.1874 352.4105 297.0998 352.3496 296.9541 352.3691 C 296.8569 352.3836 296.7174 352.499 296.5351 352.7152 C 296.3531 352.9312 296.2548 353.0906 296.24 353.1926 C 296.2304 353.2847 296.2619 353.3505 296.335 353.3893 C 296.3591 353.399 296.3979 353.4111 296.4515 353.4256 L 296.5825 353.4256 L 296.5825 354.4676 L 296.0507 354.4676 L 295.7445 355.0433 L 297.9743 355.0433 L 298.2875 354.4676 L 297.2237 354.4676 L 297.2237 353.4256 L 298.3167 353.4256 Z M 299.6138 354.4676 L 298.885 354.4676 L 298.885 351.5604 L 298.2365 351.9975 L 298.2365 354.4676 L 297.8141 354.4676 L 297.508 355.0433 L 299.3077 355.0433 Z M 299.2504 350.3217 C 299.0174 350.1808 298.7819 350.1105 298.5437 350.1105 C 298.1599 350.1105 297.8614 350.261 297.6477 350.562 C 297.5457 350.7077 297.4946 350.8682 297.4946 351.0431 C 297.4946 351.3101 297.6111 351.519 297.8444 351.6698 C 298.0434 351.796 298.2135 351.8592 298.3544 351.8592 L 298.959 351.4147 C 298.726 351.4147 298.4978 351.366 298.2742 351.269 C 297.9876 351.1426 297.8444 350.9991 297.8444 350.839 C 297.8444 350.6689 297.9561 350.5839 298.1795 350.5839 C 298.3691 350.5839 298.5463 350.6278 298.7116 350.7151 C 298.7649 350.7443 298.8303 350.7905 298.908 350.8534 Z M 301.4643 354.4676 L 299.3247 354.4676 L 299.0163 355.0433 L 301.1559 355.0433 Z M 301.4643 353.3383 L 300.4226 353.3383 C 300.3205 353.3383 300.2306 353.2944 300.153 353.2071 C 300.0753 353.1195 300.0362 353.02 300.0362 352.9083 C 300.0362 352.7773 300.0776 352.6654 300.1601 352.5732 L 300.5972 351.8881 L 300.2913 351.6914 L 299.7595 352.5367 C 299.7303 352.5806 299.6867 352.6486 299.6283 352.7408 C 299.541 352.8913 299.497 353.0639 299.497 353.2581 C 299.497 353.5251 299.6065 353.7147 299.825 353.8264 C 299.893 353.8604 300.0022 353.8919 300.153 353.9211 L 301.4643 353.9211 Z M 302.7688 354.4676 L 302.0403 354.4676 L 302.0403 351.5604 L 301.3917 351.9975 L 301.3917 354.4676 L 300.9691 354.4676 L 300.6632 355.0433 L 302.4629 355.0433 Z M 302.1945 356.0635 L 301.7208 355.5751 L 301.218 356.0854 L 301.7064 356.5587 Z M 306.8053 354.4676 L 304.6657 354.4676 L 304.3573 355.0433 L 306.4969 355.0433 Z M 306.8053 353.3383 L 305.7636 353.3383 C 305.6615 353.3383 305.5717 353.2944 305.494 353.2071 C 305.4163 353.1195 305.3772 353.02 305.3772 352.9083 C 305.3772 352.7773 305.4186 352.6654 305.5011 352.5732 L 305.9382 351.8881 L 305.6323 351.6914 L 305.1003 352.5367 C 305.0711 352.5806 305.0277 352.6486 304.9693 352.7408 C 304.882 352.8913 304.8381 353.0639 304.8381 353.2581 C 304.8381 353.5251 304.9475 353.7147 305.166 353.8264 C 305.2341 353.8604 305.3432 353.8919 305.494 353.9211 L 306.8053 353.9211 Z M 308.1098 354.4676 L 307.3813 354.4676 L 307.3813 351.5604 L 306.7328 351.9975 L 306.7328 354.4676 L 306.3101 354.4676 L 306.004 355.0433 L 307.8037 355.0433 Z M 307.8125 350.5912 C 307.7345 350.3095 307.533 350.1686 307.2076 350.1686 C 307.0278 350.1686 306.843 350.2196 306.6537 350.3217 C 306.508 350.3993 306.292 350.5572 306.0054 350.7951 C 305.9178 350.8634 305.8061 350.9629 305.67 351.0941 L 305.8305 351.2761 C 305.9178 351.184 305.9906 351.1111 306.049 351.0575 C 306.4037 350.7321 306.7143 350.5694 306.9816 350.5694 C 307.1322 350.5694 307.2756 350.6253 307.4117 350.7369 C 307.489 350.8002 307.5282 350.8852 307.5282 350.9921 C 307.5282 351.1233 307.4528 351.1888 307.3022 351.1888 C 307.2098 351.1888 307.1177 351.1474 307.0253 351.0649 C 306.9913 351.0357 306.9573 350.9921 306.9232 350.9337 L 306.5664 351.3197 C 306.61 351.3733 306.6489 351.4122 306.6829 351.4365 C 306.7897 351.5142 306.9111 351.553 307.0471 351.553 C 307.2949 351.553 307.4941 351.4657 307.6447 351.2908 C 307.7759 351.1355 307.8414 350.9654 307.8414 350.7806 C 307.8414 350.7273 307.8317 350.6641 307.8125 350.5912 Z M 312.9262 355.1672 C 312.7609 355.551 312.4573 355.8472 312.0151 356.0562 C 311.8694 356.1239 311.7166 356.1579 311.5565 356.1579 C 310.9978 356.1579 310.7183 355.8617 310.7183 355.269 C 310.7183 355.1769 310.7234 355.1017 310.7327 355.0433 L 311.4981 355.0433 L 311.8039 354.4676 L 311.0754 354.4676 L 311.0754 351.5604 L 310.4269 351.9975 L 310.4269 354.4676 L 310.0042 354.4676 L 309.6984 355.0433 L 310.4779 355.0433 C 310.4291 355.1258 310.3929 355.1964 310.3688 355.2545 C 310.2956 355.4294 310.2593 355.5972 310.2593 355.7574 C 310.2593 356.0196 310.3566 356.237 310.5507 356.4094 C 310.7449 356.582 310.9759 356.6682 311.243 356.6682 C 311.7969 356.6682 312.2972 356.3719 312.7439 355.7792 C 312.8023 355.7015 312.863 355.6043 312.9262 355.4878 Z M 313.5818 354.4676 L 311.4981 354.4676 L 311.1919 355.0433 L 313.2612 355.0433 Z M 313.6258 352.6387 C 313.5382 352.527 313.4628 352.4445 313.3996 352.391 C 313.2054 352.2257 312.9917 352.1432 312.7586 352.1432 C 312.4913 352.1432 312.2592 352.2356 312.0627 352.4202 C 311.866 352.6047 311.7433 352.8306 311.6945 353.0979 C 311.69 353.1271 311.6874 353.1705 311.6874 353.2289 C 311.6874 353.4766 311.7835 353.6841 311.9751 353.8519 C 312.1671 354.0195 312.3896 354.1031 312.6419 354.1031 C 312.9625 354.1031 313.2224 354.0087 313.4217 353.8191 C 313.4701 353.7706 313.5382 353.6759 313.6258 353.535 L 313.6258 353.3383 C 313.5574 353.3916 313.4993 353.4307 313.4509 353.4548 C 313.3001 353.5325 313.1422 353.5713 312.9772 353.5713 C 312.647 353.5713 312.3967 353.4718 312.2266 353.2728 C 312.1294 353.1611 312.0809 353.0492 312.0809 352.9375 C 312.0809 352.8938 312.0979 352.8428 312.1319 352.7844 C 312.1855 352.7116 312.2946 352.675 312.4599 352.675 C 312.7997 352.675 313.1447 352.8306 313.4942 353.1416 C 313.5334 353.1804 313.577 353.2241 313.6258 353.2728 Z M 314.9152 354.4676 L 314.1867 354.4676 L 314.1867 351.5604 L 313.5382 351.9975 L 313.5382 354.4676 L 313.1155 354.4676 L 312.8097 355.0433 L 314.6094 355.0433 Z M 318.6462 354.4676 L 317.9174 354.4676 L 317.9174 351.5604 L 317.2762 351.9975 L 317.2762 352.2453 C 317.1549 352.1336 317.0526 352.0511 316.9701 351.9975 C 316.7079 351.8277 316.4406 351.7424 316.1684 351.7424 C 315.9306 351.7424 315.6951 351.83 315.4618 352.0049 C 315.2092 352.1894 315.0831 352.3983 315.0831 352.6316 C 315.0831 352.7626 315.1023 352.8694 315.1412 352.9522 C 315.146 352.9667 315.1582 352.9837 315.1774 353.003 C 315.0853 353.0857 315.0198 353.1512 314.981 353.1997 C 314.8498 353.3649 314.7843 353.5472 314.7843 353.7462 C 314.7843 353.897 314.8546 354.011 314.9955 354.0889 C 315.0391 354.113 315.1097 354.1374 315.2066 354.1615 L 316.0304 354.1615 L 316.0304 354.4676 L 314.6094 354.4676 L 314.3032 355.0433 L 318.3398 355.0433 Z M 317.2762 352.9738 L 317.2762 354.4676 L 316.6713 354.4676 L 316.6713 353.6368 L 315.4181 353.6368 C 315.3841 353.6274 315.3597 353.6175 315.3453 353.6079 C 315.292 353.5736 315.265 353.5251 315.265 353.4619 C 315.265 353.3794 315.2942 353.3139 315.3523 353.2654 C 315.3671 353.2558 315.3986 353.2363 315.4473 353.2071 C 315.7098 353.3284 315.9428 353.3893 316.1469 353.3893 C 316.2827 353.3893 316.4006 353.3576 316.5001 353.2944 C 316.5996 353.2314 316.6495 353.1365 316.6495 353.0103 C 316.6495 352.8791 316.5622 352.8136 316.3873 352.8136 L 316.3218 352.8136 C 315.7483 352.8136 315.4836 352.6946 315.5272 352.4567 C 315.5564 352.3011 315.6729 352.2234 315.877 352.2234 C 316.1443 352.2234 316.4335 352.311 316.7442 352.4859 C 316.8414 352.5392 316.9602 352.6362 317.1013 352.7773 C 317.145 352.821 317.2034 352.8865 317.2762 352.9738 Z M 320.1395 354.4676 L 319.411 354.4676 L 319.411 351.5604 L 318.7624 351.9975 L 318.7624 354.4676 L 318.3398 354.4676 L 318.0339 355.0433 L 319.8336 355.0433 Z" transform="matrix(2.7777777,0,0,-2.7777777,0,2200)"/>
<path fill="#ffffff" d="M 238.7327 442.8746 L 241.1989 441.273 C 241.223 441.606 241.2488 441.8597 241.2748 442.0346 C 241.3576 442.5917 241.4784 442.9928 241.6377 443.2382 C 242.0203 443.8273 242.6026 444.1467 243.3855 444.1966 C 244.103 444.2542 244.7685 444.0835 245.382 443.6853 L 245.5846 443.5534 C 246.1612 443.1793 246.672 442.3677 247.1173 441.1188 L 245.8976 440.8121 C 245.48 442.1299 244.9888 442.9721 244.4244 443.3389 C 243.762 443.7689 243.1755 443.5914 242.6655 442.8065 C 242.4745 442.5117 242.3747 442.0358 242.3662 441.3781 C 242.3571 441.1225 242.3792 440.8206 242.4317 440.4722 L 246.5731 437.783 L 245.2337 437.292 L 242.7491 438.9055 C 242.7772 438.5733 242.7866 438.3054 242.7769 438.1024 C 242.7443 437.4607 242.5961 436.9377 242.3333 436.5329 C 241.8951 435.8577 241.278 435.4517 240.4823 435.3146 C 239.6869 435.1768 238.9513 435.3273 238.2766 435.7655 C 237.7242 436.1241 237.4072 436.5697 237.3259 437.1024 C 237.2445 437.635 237.3871 438.1838 237.7536 438.7482 C 238.1122 439.3003 238.7302 439.7012 239.6078 439.9512 C 239.887 440.0317 240.296 440.0972 240.8349 440.1488 L 238.1111 441.9176 L 234.9198 437.0034 L 233.5326 436.9623 L 237.8903 443.2462 L 237.6422 443.3312 L 237.653 443.3462 L 237.5657 443.3689 L 237.2014 443.5024 C 235.787 443.9696 234.6089 443.9662 233.6681 443.4925 C 233.3863 443.3539 233.1079 443.0948 232.8327 442.7161 L 231.2949 443.101 C 231.7808 443.8692 232.626 444.2859 233.8308 444.3514 C 234.1114 444.3639 234.7033 444.3321 235.6055 444.255 C 236.2856 444.1952 236.9441 444.0691 237.5819 443.8769 L 238.0938 443.7224 L 238.0915 443.7193 L 238.1958 443.6867 L 241.1566 447.8031 L 244.5231 451.6877 L 248.0655 455.2812 L 255.5751 462.0433 L 256.883 461.6169 L 255.2227 460.3201 L 260.9649 452.9704 L 259.5387 452.9424 L 256.7701 456.486 L 256.0252 456.5948 L 256.0175 456.603 C 255.9793 456.6042 255.9441 456.6042 255.9118 456.6025 C 255.549 456.584 255.2604 456.4749 255.0464 456.2753 C 254.6184 455.8762 254.524 454.9479 254.7626 453.4906 C 254.7969 453.2822 254.8494 453.001 254.9197 452.6467 L 253.8113 452.4831 L 253.563 453.8117 C 252.6661 453.9155 252.0785 453.8378 251.8002 453.5785 C 250.8908 452.73 250.8452 451.8675 251.6635 450.9901 C 252.0723 450.5513 252.6511 450.231 253.3997 450.0289 C 253.9517 449.8234 254.8996 449.697 256.2435 449.6502 L 256.6159 449.6369 L 256.61 449.0317 C 255.0294 449.1181 253.8437 449.2423 253.0519 449.4044 C 251.8393 449.6539 250.9387 450.0941 250.35 450.7254 C 250.0305 451.0681 249.8253 451.497 249.7348 452.0123 C 249.6444 452.5279 249.7394 452.9568 250.0203 453.299 C 250.1612 453.4702 250.3009 453.6204 250.4398 453.7502 C 250.8894 454.1692 251.5442 454.3999 252.4048 454.4422 C 252.6744 454.4535 253.0565 454.43 253.5514 454.3713 C 253.4924 454.7563 253.4613 455.0471 253.4579 455.2441 C 253.47 455.8958 253.6475 456.3811 253.9899 456.7005 C 254.3522 457.0381 254.8409 457.2006 255.4577 457.1884 L 255.4569 457.1892 L 256.2072 457.2068 L 254.3236 459.6174 L 247.949 453.6553 L 247.913 453.6612 L 245.6969 451.3669 L 247.9992 449.2939 C 248.0655 449.2145 248.1608 449.0796 248.2846 448.8894 C 248.7118 448.2488 248.8187 447.5472 248.6095 446.7906 L 248.529 446.504 L 253.3691 446.4079 L 253.3297 445.6755 L 248.5732 445.7061 C 248.3969 445.7072 248.07 445.716 247.593 445.7322 C 246.9067 445.7792 246.4166 445.9348 246.1232 446.199 C 245.8188 446.4734 245.7794 446.7356 246.0044 446.9856 C 246.0827 447.0724 246.3205 447.1781 246.7182 447.3026 C 247.1156 447.427 247.3138 447.4998 247.3126 447.5203 C 247.4084 447.6702 247.4019 447.8924 247.2934 448.1872 C 247.2681 448.2689 247.2046 448.395 247.1023 448.566 L 244.9335 450.519 L 241.8012 446.9788 Z M 371.4202 445.3614 L 370.7683 446.1945 L 363.5198 440.3251 L 363.4668 441.7503 L 367.183 444.7596 L 367.204 445.0547 L 367.2207 445.0904 C 367.2303 445.3625 367.2241 445.8631 367.2159 445.9578 C 367.1844 446.3195 367.0659 446.6038 366.859 446.8107 C 366.4451 447.2249 365.5142 447.2867 364.066 446.9973 C 363.8591 446.9556 363.5799 446.8938 363.2281 446.8107 L 363.0263 447.9129 L 364.3452 448.2074 C 364.4175 449.1077 364.3191 449.6922 364.0501 449.9612 C 363.1708 450.8402 362.3071 450.8558 361.4587 450.0077 C 361.0349 449.5833 360.7347 448.994 360.559 448.2386 C 360.3728 447.6801 360.2798 446.728 360.2795 445.3835 L 360.2795 445.011 L 359.6743 444.9954 C 359.7055 446.5783 359.7883 447.768 359.9226 448.5645 C 360.1295 449.7851 360.538 450.7004 361.1483 451.311 C 361.4797 451.6421 361.9012 451.8621 362.4131 451.9706 C 362.9254 452.0792 363.3574 451.999 363.7091 451.7303 C 363.8849 451.5956 364.0402 451.4613 364.1746 451.3266 C 364.6091 450.8921 364.8626 450.2455 364.9348 449.3869 C 364.9555 449.1181 364.9453 448.7352 364.9037 448.2386 C 365.2866 448.3108 365.5763 448.3525 365.7728 448.3627 C 366.4247 448.3732 366.9157 448.2128 367.2471 447.8817 C 367.6569 447.4715 367.8593 446.3382 367.8018 445.5524 L 367.8035 445.551 L 367.8151 445.2715 L 370.0502 447.0812 L 369.4904 447.7723 L 369.489 447.7575 L 369.4348 447.8411 L 369.2217 448.1691 L 363.7789 454.1221 L 363.7525 454.0626 L 363.1323 454.7602 L 362.2022 455.639 L 362.1677 455.6744 L 355.8489 448.8987 L 355.5981 450.3027 L 361.3671 456.4894 L 359.9283 457.6802 L 359.9544 457.8157 L 358.7253 458.7109 L 352.9695 451.3442 L 352.6109 452.7383 L 353.543 453.9314 C 353.2056 453.8795 352.9171 453.8546 352.6767 453.8563 C 351.5502 453.8639 350.6644 454.1202 350.0186 454.6247 C 349.0617 455.3719 348.6158 456.2867 348.681 457.3681 C 348.7116 457.8829 348.8352 458.278 349.0512 458.555 C 349.2765 458.8432 349.5875 459.0272 349.9841 459.1071 C 350.1162 459.1341 350.2979 459.1406 350.5286 459.1276 C 350.0354 460.5154 350.0359 461.5265 350.5314 462.1606 C 350.7659 462.4603 351.1086 462.5546 351.5598 462.4432 C 351.6996 462.4084 351.9088 462.3194 352.1869 462.1765 L 354.0892 460.69 L 354.8863 461.7102 L 351.8413 463.987 L 351.3217 464.3668 L 349.5869 465.4057 L 344.5929 457.3928 L 344.0786 458.7231 L 345.9535 461.7255 L 345.3897 461.6351 C 345.1207 461.5038 344.8976 461.414 344.7198 461.3649 C 343.9789 461.1679 343.237 461.2586 342.4941 461.6371 C 341.7642 462.009 341.2094 462.6445 340.8301 463.5437 C 340.4251 464.489 340.4186 465.3136 340.8097 466.0172 C 341.1544 466.6297 341.6842 466.992 342.398 467.1045 C 343.04 467.2043 343.6869 467.0881 344.3389 466.7559 C 345.1076 466.3641 345.6649 465.6206 346.0099 464.5253 C 346.1287 464.1273 346.2151 463.6352 346.2693 463.0496 L 346.447 462.5158 L 348.7484 466.1135 L 340.1107 470.3729 L 336.3148 461.8468 L 335.6291 463.1128 L 339.0613 470.8219 L 337.6052 471.4112 L 337.593 471.4174 L 336.2009 471.9818 L 333.0561 463.3413 L 332.2766 464.5361 L 333.0493 466.6589 L 332.8999 466.6235 C 332.5436 466.4169 332.2602 466.272 332.0484 466.1884 C 331.3287 465.9077 330.6665 465.8542 330.0616 466.0274 C 329.9451 466.0458 329.8731 466.0588 329.8448 466.0671 C 329.0151 466.3049 328.373 466.7856 327.9183 467.5096 C 327.4639 468.2339 327.3537 469.0032 327.5875 469.819 C 327.7168 470.2691 327.9671 470.6385 328.3393 470.9279 C 328.4558 471.0161 328.6369 471.1161 328.8821 471.2287 L 327.9243 472.1882 L 324.5227 470.9945 L 324.0626 472.017 L 327.0387 472.9215 C 326.7258 473.2092 326.5058 473.4241 326.3794 473.567 C 325.7368 474.2994 325.4905 474.9256 325.6393 475.4458 C 325.7606 475.8678 326.0421 476.1598 326.4846 476.3222 C 326.8763 476.4685 327.2902 476.4793 327.7264 476.3543 C 328.9501 476.0033 329.6789 475.414 329.9131 474.5857 C 330.0114 474.2379 330.0182 473.9162 329.9335 473.6208 C 329.7881 473.1146 329.3195 472.7013 328.5272 472.3804 L 329.5905 471.3908 C 329.8034 471.3902 330.0857 471.3401 330.4375 471.2394 C 331.4078 470.9611 332.193 470.302 332.7931 469.2623 C 332.9836 468.9187 333.1638 468.4864 333.3342 467.9657 L 333.3231 467.9274 L 333.4414 467.7367 L 335.1416 472.4079 L 332.9512 473.2875 L 331.4784 473.8561 L 331.0648 475.2774 L 335.1827 473.6914 L 339.7192 471.8134 C 339.6183 472.163 339.5537 472.4484 339.5237 472.6692 C 339.4278 473.3527 339.4865 473.9352 339.7008 474.4162 C 340.1116 475.3386 340.8041 475.8148 341.7786 475.8452 C 342.184 475.8571 342.6143 475.7618 343.0687 475.5594 C 344.1243 475.0892 344.939 473.9338 345.5127 472.0927 C 345.5649 471.9574 345.6604 471.5787 345.7996 470.9563 L 345.496 470.2745 C 345.4058 470.8273 345.3409 471.1847 345.3009 471.3466 C 344.9718 472.6939 344.4846 473.6319 343.8388 474.1594 C 343.6753 474.2963 343.44 474.4332 343.1327 474.5701 C 342.2237 474.9746 341.4342 474.8377 340.7638 474.1591 C 340.5572 473.9471 340.3973 473.7141 340.2842 473.4598 C 340.1235 473.099 340.0438 472.6862 340.0449 472.2214 C 340.0449 472.0771 340.0631 471.8846 340.1002 471.6439 L 341.8044 470.8851 L 341.8055 470.8786 L 347.7475 467.9002 L 349.7448 466.7323 L 352.7079 464.7535 L 360.1854 459.0179 L 360.1865 459.0238 L 360.2574 458.9617 L 360.5173 458.7588 L 360.5142 458.7367 L 360.6406 458.6258 L 360.6489 458.6664 L 361.3374 458.0152 L 362.2796 457.1892 L 363.0912 456.3561 L 363.4194 456.0457 L 363.4206 456.0182 L 363.5555 455.8796 L 363.5538 455.9199 L 364.2384 455.1792 L 364.2435 455.1738 L 364.2435 455.1735 L 369.023 450.0006 L 369.0238 450.0057 L 369.0714 449.9484 L 371.4559 447.0625 L 373.5283 444.1878 L 378.2254 436.9388 L 377.6213 435.7032 L 376.5677 437.5276 L 368.4906 432.8643 L 368.6613 434.2805 L 371.5733 435.9617 L 371.0996 436.0388 L 371.0506 436.0042 L 370.9324 436.066 L 370.8587 436.0779 L 370.8788 436.0944 C 370.11 436.5051 369.6126 436.8719 369.3858 437.1956 C 368.5884 438.3343 368.318 439.422 368.5742 440.4589 C 368.6593 440.822 368.8906 441.2696 369.2679 441.8019 C 369.2954 441.8391 369.3506 441.9133 369.4334 442.025 L 369.8124 442.478 C 370.0131 442.2433 370.2305 442.0471 370.4655 441.8904 C 371.471 441.2191 372.1958 441.0388 372.6388 441.3492 C 372.8906 441.5255 373.0771 441.8079 373.1981 442.1962 C 373.2435 442.3354 373.2642 442.5103 373.2593 442.7212 Z M 373.7373 442.038 C 373.7027 441.9601 373.6511 441.8169 373.5831 441.6083 C 373.3191 440.888 373.0377 440.4229 372.7383 440.2131 C 372.0909 439.7598 371.1212 440.0096 369.8291 440.9623 L 369.5505 441.1692 C 369.4212 440.9714 369.3353 440.8132 369.2937 440.6944 C 369.0094 439.9775 369.1108 439.2717 369.5975 438.5767 C 370.0505 437.9295 370.8587 437.3878 372.0214 436.9518 L 372.0654 436.9365 L 372.9983 436.7843 L 375.9973 438.5157 Z M 299.3822 473.4105 L 299.5257 473.6259 L 299.2428 477.6721 C 298.5406 477.6015 297.7761 477.5193 297.004 477.4275 L 295.4563 477.1335 C 295.509 477.0663 295.611 476.9532 295.7632 476.7953 C 296.2752 476.2242 296.5541 475.7573 296.5986 475.3942 C 296.695 474.6101 296.0189 473.8711 294.5713 473.1775 L 294.2578 473.0287 C 294.3717 472.8212 294.4712 472.6715 294.5565 472.5788 C 295.0557 471.9915 295.7267 471.7497 296.5689 471.8531 C 297.3529 471.9495 298.2104 472.409 299.1416 473.2305 C 299.1764 473.2611 299.2929 473.3269 299.3822 473.4105 Z M 299.643 471.9472 L 299.4919 471.9073 C 298.7053 471.3653 298.1044 471.0688 297.6885 471.0178 C 296.3092 470.8483 295.2218 471.1201 294.4264 471.8333 C 294.1461 472.0788 293.8595 472.4932 293.5664 473.0763 C 293.5468 473.118 293.5071 473.2016 293.4473 473.3271 L 293.2251 473.8745 C 293.5267 473.9411 293.802 474.0412 294.0508 474.175 C 295.1152 474.7479 295.6147 475.3032 295.5487 475.8403 C 295.5112 476.1451 295.3494 476.4421 295.0634 476.7316 C 294.9619 476.8367 294.8173 476.9371 294.6288 477.0317 L 293.0238 476.8347 C 292.877 476.8055 292.7361 476.7766 292.6009 476.7469 L 292.604 476.7435 L 292.5411 476.7335 C 292.451 476.7131 292.3631 476.6933 292.2789 476.6726 L 290.5373 476.3242 L 291.9858 467.1802 L 290.7213 467.8685 L 289.3997 476.0969 L 286.1031 475.4375 L 286.6215 473.6296 C 286.7063 473.334 286.5095 473.1177 286.0313 472.9808 L 283.6687 472.3033 C 283.3875 472.2228 283.1797 472.125 283.045 472.0105 C 282.6652 471.6884 282.5603 471.2323 282.7298 470.6413 C 282.996 469.7133 283.5431 469.1852 284.3711 469.0573 C 284.7067 469.0015 285.0506 469.0239 285.4018 469.1248 C 285.6271 469.1894 285.8349 469.2869 286.0257 469.4179 C 286.054 469.4258 286.0849 469.4499 286.1189 469.4902 C 285.6728 469.7731 285.4383 470.0866 285.4159 470.4299 C 285.4094 470.6107 285.5401 470.7397 285.8074 470.8162 C 286.1306 470.9092 286.5127 470.9044 286.9529 470.802 C 287.4532 470.7023 287.746 470.5047 287.8305 470.209 C 287.9232 469.8859 287.8041 469.5318 287.473 469.1477 L 289.6911 466.2683 L 289.1245 465.7632 L 286.9279 468.5805 L 284.1758 465.2802 L 283.3214 465.9636 L 285.2433 468.1661 C 284.7688 468.2276 284.4048 468.3291 284.1514 468.4694 C 282.7505 469.0568 281.9044 469.857 281.6141 470.8695 C 281.372 471.7134 281.5696 472.379 282.206 472.8657 C 282.3307 472.9623 282.5135 473.0681 282.7545 473.1829 L 285.3283 473.9207 L 284.9734 475.158 L 279.9366 473.775 L 274.4799 471.7349 L 273.4143 471.2641 L 268.869 468.9689 L 270.1936 466.5793 C 270.3716 466.8619 270.5134 467.0739 270.6185 467.2162 C 270.953 467.6692 271.2481 467.9666 271.5041 468.1083 C 272.1183 468.4487 272.7825 468.4575 273.4971 468.1341 C 274.1576 467.8478 274.665 467.3849 275.0196 466.7451 L 275.1367 466.5339 C 275.4703 465.9324 275.54 464.9763 275.347 463.6647 L 274.1261 463.9666 C 274.3761 465.3264 274.3379 466.3003 274.0116 466.8888 C 273.6286 467.5799 273.0277 467.6984 272.2088 467.2443 C 271.9015 467.0739 271.5902 466.7009 271.2739 466.124 C 271.146 465.9026 271.0233 465.6254 270.9065 465.2932 L 273.3004 460.9746 L 271.8876 461.1699 L 270.451 463.7611 C 270.32 463.4544 270.2027 463.2137 270.0986 463.0388 C 269.7684 462.4877 269.3923 462.0951 268.9699 461.8613 C 268.2663 461.471 267.5307 461.4021 266.7637 461.6546 C 265.9966 461.9066 265.4181 462.3846 265.028 463.0884 C 264.7086 463.6644 264.6383 464.2064 264.8163 464.7149 C 264.9946 465.2235 265.3778 465.6407 265.9663 465.9673 C 266.5423 466.2865 267.2762 466.3502 268.1683 466.1589 C 268.4529 466.0991 268.8446 465.965 269.3446 465.7572 L 267.8607 468.4346 L 262.6994 465.6759 L 262.4338 465.8618 L 261.4011 466.3723 L 263.8709 467.6471 L 267.8391 469.8814 L 268.5949 470.2348 C 268.5509 470.2935 268.507 470.3519 268.4608 470.4077 C 267.6158 471.4203 266.5372 472.3843 265.1477 472.4637 C 264.8341 472.4841 264.4634 472.3994 264.0356 472.2089 L 262.8964 473.311 C 263.7011 473.7336 264.6417 473.6716 265.7174 473.1259 C 265.9671 472.9966 266.4643 472.6738 267.2065 472.1553 C 267.7654 471.7644 268.2227 471.2715 268.7289 470.8395 L 269.1111 470.4766 L 275.7013 473.3872 C 280.0885 475.1101 284.845 476.394 289.4562 477.4003 C 289.364 477.608 289.2067 477.9459 288.9845 478.4142 C 288.023 480.2763 287.1303 481.1423 286.3069 481.0119 C 285.9313 480.9523 285.6688 480.759 285.5211 480.4322 C 285.3726 480.1048 285.3298 479.7462 285.3913 479.3562 C 285.4715 478.8505 285.6662 478.4148 285.9761 478.0488 L 285.4774 477.9697 C 284.995 478.6784 284.7044 479.3434 284.6061 479.9648 C 284.4 481.2656 284.8465 482.0026 285.9446 482.1766 C 286.797 482.3118 287.619 481.7976 288.4105 480.634 C 289.0857 479.645 289.5934 478.5919 289.9329 477.4757 L 290.6765 477.5933 C 290.8945 477.6364 291.1085 477.6772 291.3143 477.7143 L 291.2658 477.7685 L 292.9808 477.9791 C 294.0058 478.1426 295.9509 478.4431 297.7486 478.662 C 299.5824 478.885 301.263 478.9723 301.659 478.9723 L 302.4675 477.9867 L 302.4771 477.9757 L 302.4765 477.9757 L 302.4859 477.9646 C 302.4859 477.9646 301.6276 477.8991 300.3792 477.7824 L 301.0263 468.5247 L 299.8284 469.2986 Z M 241.5711 439.6703 C 241.1694 439.67 240.853 439.6397 240.6226 439.5798 C 239.9108 439.397 239.3555 438.9985 238.9569 438.3848 C 238.6942 437.9803 238.5692 437.5729 238.5822 437.1633 C 238.5961 436.7007 238.7928 436.3458 239.1732 436.0989 C 239.2469 436.051 239.3345 436.0116 239.4366 435.9804 C 240.1413 435.7497 240.7048 435.9591 241.1271 436.6094 C 241.5095 437.1985 241.6802 438.012 241.6397 439.0506 C 241.6334 439.2286 241.6107 439.4356 241.5711 439.6703 Z M 269.7704 464.9893 C 269.4149 465.1775 269.1218 465.2991 268.8902 465.355 C 268.1756 465.5273 267.4984 465.4363 266.8586 465.0817 C 266.4366 464.8476 266.1347 464.5468 265.9538 464.1789 C 265.7489 463.7642 265.7563 463.3583 265.9762 462.9617 C 266.0187 462.8849 266.0777 462.8086 266.1531 462.7335 C 266.667 462.1989 267.2629 462.1195 267.9409 462.4954 C 268.5552 462.8358 269.0881 463.4739 269.5394 464.4099 C 269.6176 464.5704 269.6947 464.7634 269.7704 464.9893 Z M 281.8911 470.4063 L 278.5538 469.0579 L 278.8744 468.2645 C 279.11 467.6814 279.0541 467.3511 278.7066 467.2735 C 278.4132 467.2182 277.9707 467.3667 277.3786 467.7197 C 276.7867 468.072 276.4329 468.3903 276.3179 468.6755 C 276.1699 469.0414 276.374 469.3371 276.9301 469.5619 L 281.488 471.4036 Z M 316.8833 479.4386 C 316.6092 479.9273 316.4261 480.2409 316.3329 480.3792 C 315.563 481.5329 314.7843 482.2478 313.9968 482.5225 C 313.7964 482.5953 313.5288 482.6435 313.1932 482.6667 C 312.2005 482.7362 311.5054 482.3376 311.1075 481.4708 C 310.9859 481.2004 310.9156 480.9266 310.8963 480.6493 C 310.8685 480.2553 310.9348 479.8403 311.0947 479.4035 C 311.144 479.2683 311.2271 479.0937 311.3444 478.8799 L 313.2051 478.7501 L 313.8917 477.5581 L 311.79 477.705 L 311.1381 468.3793 L 310.0606 469.3343 L 310.6517 477.7846 L 309.3163 477.8782 L 308.6297 479.0701 L 310.9283 478.9091 C 310.714 479.2028 310.5556 479.4489 310.4518 479.6464 C 310.1281 480.2559 309.9841 480.8234 310.0207 481.3486 C 310.0912 482.3558 310.5791 483.0403 311.4845 483.4023 C 311.8618 483.5517 312.2983 483.6093 312.7946 483.5747 C 313.9475 483.4939 315.1083 482.6869 316.277 481.153 C 316.372 481.0439 316.5914 480.7205 316.9352 480.1833 Z M 320.3731 476.7783 L 313.577 477.6129 L 312.954 478.8388 L 319.7064 478.01 Z M 319.8348 471.494 C 319.5451 471.1757 319.3033 470.9472 319.1094 470.8091 C 318.4807 470.3703 317.7524 470.202 316.9247 470.3034 C 316.1117 470.4032 315.373 470.8108 314.7092 471.5263 C 314.005 472.2758 313.7168 473.0482 313.844 473.8433 C 313.9586 474.537 314.3322 475.0583 314.9646 475.4081 C 315.5338 475.7216 316.1812 475.8338 316.9077 475.7445 C 317.7641 475.6394 318.5419 475.1311 319.2409 474.2201 C 319.4938 473.8796 319.7489 473.4354 320.0057 472.8878 Z M 319.756 472.6534 C 319.5391 473.0482 319.3398 473.3456 319.1579 473.5446 C 318.6156 474.1713 317.9818 474.5293 317.2555 474.6186 C 317.1229 474.62 317.0205 474.6254 316.9477 474.6342 C 316.3893 474.6438 315.9085 474.5112 315.5063 474.2362 C 315.1037 473.9613 314.8699 473.5553 314.8038 473.0182 C 314.6791 472.0014 315.0884 471.4353 316.0324 471.3194 C 317.02 471.198 318.261 471.6428 319.756 472.6534 Z M 323.9634 476.1918 L 321.8825 476.5218 L 320.4235 467.3098 L 319.4306 468.3334 L 320.7557 476.7001 L 319.4334 476.9096 L 318.8319 478.1602 L 323.3835 477.4394 Z M 329.0777 474.3003 C 329.1786 474.6515 329.1032 474.9585 328.8512 475.2213 C 328.5992 475.4837 328.2843 475.6462 327.9067 475.7088 C 327.2856 475.8259 326.8763 475.5402 326.6787 474.8511 C 326.558 474.429 326.7363 473.9899 327.2142 473.5332 C 327.3347 473.4227 327.4761 473.3059 327.6388 473.1831 C 327.7256 473.2191 327.8801 473.2815 328.1034 473.3697 C 328.6403 473.5959 328.9649 473.9063 329.0777 474.3003 Z M 333.0777 467.788 C 332.8673 468.1678 332.6717 468.4677 332.4909 468.6868 C 331.9489 469.3445 331.3616 469.764 330.7286 469.9457 C 329.491 470.3003 328.7188 469.9437 328.4124 468.8748 C 328.1542 467.9745 328.4402 467.4056 329.2699 467.1677 C 329.959 466.9702 330.8185 467.0206 331.8474 467.3191 C 332.3962 467.4813 332.8064 467.6374 333.0777 467.788 Z M 345.9583 462.8767 C 345.8894 463.3223 345.8041 463.6695 345.7012 463.919 C 345.4061 464.6934 344.9327 465.2464 344.2808 465.5786 C 344.1569 465.6254 344.0622 465.6654 343.997 465.6986 C 343.4751 465.899 342.9782 465.9386 342.5063 465.8176 C 342.0343 465.6971 341.6754 465.3955 341.4297 464.9134 C 340.9645 464.0006 341.1556 463.3288 342.0031 462.8968 C 342.8895 462.4452 344.2079 462.4387 345.9583 462.8767 Z M 354.5297 455.1939 L 357.8261 459.4133 L 355.8892 460.9267 L 354.795 459.5258 C 354.5878 459.2608 354.3174 459.2123 353.9843 459.3796 C 353.9611 459.3977 353.922 459.419 353.8667 459.4433 L 351.7744 461.0781 C 351.6871 461.109 351.5726 461.1523 351.4303 461.2082 C 351.1738 461.2598 351.0009 461.1813 350.9118 460.9721 C 350.761 460.5888 350.8064 460.2192 351.0482 459.8631 C 351.125 459.7478 351.2625 459.6029 351.4609 459.4294 C 351.7277 459.2954 352.0684 459.0663 352.4834 458.7418 C 353.3366 458.0753 353.6705 457.564 353.4849 457.2077 C 353.4449 457.109 353.3902 457.0033 353.3204 456.8905 C 353.1583 456.683 352.91 456.7099 352.5758 456.9707 C 352.4837 457.043 352.3567 457.1657 352.1945 457.3383 C 352.0324 457.5112 351.9057 457.6337 351.8133 457.706 C 351.502 457.9492 351.1517 458.0651 350.7625 458.0538 C 350.3727 458.0425 350.0609 457.8868 349.8267 457.5872 C 349.232 456.8264 349.2176 456.2252 349.7825 455.7835 C 350.0359 455.5854 350.3679 455.4283 350.7783 455.3121 C 350.9617 455.2614 351.2985 455.1934 351.7883 455.1077 C 352.512 454.9878 353.1611 454.9635 353.736 455.034 C 353.9415 455.0593 354.2057 455.1126 354.5297 455.1939" transform="matrix(2.7777777,0,0,-2.7777777,0,2200)"/>
<path fill-rule="evenodd" fill="#134e8c" d="M 306 489.8784 C 357.8389 489.8784 399.8784 447.8389 399.8784 396 C 399.8784 344.1611 357.8389 302.1216 306 302.1216 C 254.1611 302.1216 212.1216 344.1611 212.1216 396 C 212.1216 447.8389 254.1611 489.8784 306 489.8784 Z M 306 488.5274 C 357.0928 488.5274 398.5277 447.0928 398.5277 396 C 398.5277 344.9072 357.0928 303.4723 306 303.4723 C 254.9072 303.4723 213.4726 344.9072 213.4726 396 C 213.4726 447.0928 254.9072 488.5274 306 488.5274" transform="matrix(2.7777777,0,0,-2.7777777,0,2200)"/>
<path fill="#ffffff" d="M 232.6836 376.4863 L 231.497 376.2689 C 231.5642 376.6796 231.5968 377.07 231.5908 377.4467 C 231.5854 377.8209 231.5412 378.1939 231.4562 378.5618 C 231.1872 379.7269 230.6333 380.5736 229.7948 381.1014 C 228.9563 381.6292 227.9591 381.7599 226.8031 381.4929 C 225.6335 381.223 224.7914 380.6702 224.2806 379.8332 C 223.7692 378.9961 223.649 377.9867 223.9211 376.8075 C 224.0073 376.4347 224.1264 376.0792 224.2783 375.7388 C 224.4322 375.4015 224.6156 375.0752 224.8333 374.76 L 223.628 374.44 C 223.4412 374.7504 223.2748 375.09 223.1306 375.459 C 222.9834 375.8298 222.8624 376.2269 222.7635 376.6555 C 222.3964 378.2446 222.5384 379.5956 223.1889 380.7128 C 223.8395 381.8273 224.9104 382.5581 226.3992 382.902 C 227.9047 383.2495 229.2129 383.0581 230.3209 382.3296 C 231.4293 381.6014 232.1649 380.446 232.5297 378.866 C 232.6269 378.4442 232.6904 378.0317 232.7162 377.6326 C 232.7445 377.2344 232.7338 376.854 232.6836 376.4863 Z M 233.3534 374.9244 L 235.0191 369.7982 L 234 369.4671 L 232.7652 373.2676 L 229.7605 372.2913 L 230.9281 368.6978 L 229.8617 368.3511 L 228.6941 371.9446 L 225.4076 370.8768 L 226.6829 366.9511 L 225.5913 366.5965 L 223.8849 371.848 Z M 235.8088 367.7649 L 236.5209 366.1656 L 231.2039 359.0575 C 231.1257 358.9571 230.9984 358.8194 230.8235 358.6476 C 230.6469 358.4744 230.4349 358.2808 230.1866 358.0676 C 230.4967 358.2714 230.7762 358.4483 231.0301 358.5954 C 231.283 358.7445 231.5055 358.8622 231.698 358.9478 L 238.405 361.9338 L 238.9263 360.7628 L 229.8314 356.7135 L 229.1357 358.2757 L 234.485 365.4816 C 234.5502 365.5709 234.6647 365.6954 234.8351 365.8601 C 235.006 366.0228 235.2345 366.2212 235.5177 366.4548 C 235.0587 366.1747 234.7055 365.9624 234.4518 365.8153 C 234.2001 365.669 234.0159 365.5715 233.9022 365.5208 L 227.2323 362.5509 L 226.7138 363.7154 Z M 239.8394 359.6581 L 243.2225 353.5549 L 242.206 352.9913 L 240.8542 355.43 L 233.1632 351.1667 L 232.4837 352.3927 L 240.1747 356.656 L 238.8229 359.0946 Z M 243.805 351.3212 L 241.1325 349.2332 L 241.7922 348.389 C 242.2205 347.8408 242.6771 347.5054 243.161 347.3827 C 243.6454 347.2603 244.0993 347.3629 244.5231 347.6945 C 244.9755 348.0477 245.1937 348.4519 245.1813 348.9063 C 245.1674 349.3599 244.9193 349.8945 244.4397 350.509 Z M 243.7997 353.0682 L 245.4517 350.9538 C 246.151 350.0586 246.5087 349.2547 246.5235 348.5409 C 246.5379 347.8269 246.2136 347.2089 245.5483 346.6894 C 245.0509 346.3007 244.5231 346.1253 243.9638 346.1615 C 243.4028 346.1995 242.8506 346.4481 242.3004 346.9073 C 242.422 346.6236 242.4637 346.3489 242.4277 346.0842 C 242.3917 345.8194 242.2491 345.462 241.9957 345.0095 L 240.1092 341.6207 L 239.1891 342.7985 L 240.9491 345.8364 C 241.1748 346.2313 241.2743 346.585 241.2516 346.8983 C 241.2252 347.2115 241.0648 347.5568 240.7686 347.9355 L 240.277 348.5648 L 236.804 345.8514 L 235.9545 346.9385 Z M 250.4061 343.1494 L 245.3545 341.14 L 248.0063 338.2957 Z M 250.7386 344.5812 L 251.8951 343.3411 L 247.2755 333.697 L 246.2479 334.7989 L 247.4637 337.2437 L 244.2328 340.7085 L 241.7091 339.6662 L 240.7484 340.6966 Z M 255.4024 339.9795 L 256.4546 339.0647 L 250.6856 332.4285 L 253.6832 329.8224 L 252.9207 328.945 L 248.8708 332.4657 Z M 264.8426 332.5706 L 266.0437 331.8772 L 263.1118 326.7986 C 262.5783 325.8751 262.3527 325.0967 262.4323 324.4598 C 262.512 323.8228 262.8955 323.3058 263.5832 322.9089 C 264.2791 322.5073 264.9407 322.4429 265.5666 322.7139 C 266.1934 322.9866 266.775 323.5873 267.3119 324.5173 L 270.1817 329.4879 L 271.3042 328.8399 L 268.4211 323.8464 C 267.6917 322.5832 266.8742 321.7932 265.9654 321.4726 C 265.0603 321.1532 264.0614 321.3074 262.974 321.935 C 261.9218 322.5424 261.3027 323.3117 261.1196 324.2429 C 260.9345 325.1755 261.1908 326.2453 261.8889 327.4549 Z M 273.1226 327.8387 L 274.7455 327.1827 L 275.8586 318.3761 C 275.872 318.2496 275.8759 318.062 275.87 317.8171 C 275.8629 317.5696 275.845 317.283 275.8141 316.9573 C 275.8958 317.319 275.974 317.641 276.0548 317.9231 C 276.133 318.206 276.2116 318.4452 276.2901 318.6403 L 279.0408 325.4477 L 280.2294 324.9675 L 276.4998 315.7364 L 274.9141 316.3771 L 273.7565 325.2767 C 273.7412 325.3861 273.7372 325.5551 273.7451 325.7918 C 273.7553 326.0276 273.7814 326.3292 273.8231 326.694 C 273.6879 326.1733 273.5813 325.7756 273.5005 325.4936 C 273.4211 325.2135 273.3565 325.0151 273.31 324.8997 L 270.5749 318.1303 L 269.3931 318.6079 Z M 282.8245 324.0638 L 284.1429 323.61 L 280.9018 314.1967 L 279.5834 314.6505 Z M 285.4551 323.2786 L 286.8948 322.9464 L 287.8024 313.886 L 292.6899 321.6084 L 294.0625 321.2915 L 288.2463 312.4165 L 286.6615 312.7822 Z M 295.3443 321.2957 L 300.6822 320.5457 L 300.5328 319.4844 L 296.5759 320.0409 L 296.136 316.9123 L 299.8777 316.3861 L 299.7215 315.2755 L 295.9801 315.8016 L 295.4991 312.3794 L 299.5866 311.8048 L 299.4267 310.6681 L 293.9587 311.4366 Z M 304.2505 319.3917 L 304.1323 316.0026 L 305.2032 315.9652 C 305.8982 315.9411 306.4487 316.0749 306.8538 316.3671 C 307.2589 316.6594 307.4717 317.073 307.4907 317.6107 C 307.5106 318.1844 307.3414 318.6113 306.9853 318.8942 C 306.6287 319.1749 306.0598 319.3288 305.2809 319.356 Z M 302.9091 320.5108 L 305.5904 320.417 C 306.7257 320.3776 307.5715 320.135 308.1277 319.6871 C 308.6841 319.2395 308.9489 318.5938 308.9194 317.7502 C 308.8976 317.1192 308.6926 316.6021 308.3054 316.1971 C 307.9154 315.7914 307.3703 315.5284 306.6644 315.4022 C 306.9604 315.3127 307.1974 315.1684 307.3771 314.9705 C 307.5565 314.7727 307.7388 314.4339 307.9227 313.9489 L 309.306 310.3257 L 307.8122 310.3778 L 306.6163 313.6785 C 306.4589 314.1054 306.252 314.4093 305.9974 314.5927 C 305.7403 314.7741 305.373 314.873 304.8925 314.8897 L 304.0943 314.9178 L 303.9403 310.513 L 302.5616 310.5609 Z M 315.9334 320.8175 L 315.8991 319.5901 C 315.5786 319.7134 315.2543 319.7979 314.924 319.8433 C 314.5958 319.8892 314.2517 319.8974 313.8993 319.8665 C 313.2989 319.8141 312.8391 319.661 312.5203 319.4073 C 312.2039 319.1567 312.0616 318.8344 312.0959 318.4435 C 312.1226 318.1365 312.2614 317.8675 312.5123 317.6351 C 312.7606 317.4049 313.2828 317.1144 314.0719 316.7657 C 315.1006 316.3133 315.8201 315.8816 316.2328 315.4714 C 316.6432 315.0629 316.8731 314.5742 316.923 314.007 C 316.9967 313.1637 316.7498 312.446 316.1798 311.8538 C 315.61 311.2588 314.8427 310.9204 313.8729 310.8353 C 313.4038 310.7945 312.9525 310.7934 312.5171 310.8297 C 312.082 310.866 311.6721 310.9408 311.288 311.0511 L 311.3093 312.3972 C 311.7379 312.2189 312.1472 312.0962 312.5373 312.0273 C 312.9296 311.9584 313.306 311.9383 313.668 311.97 C 314.2494 312.0208 314.7072 312.1931 315.0374 312.4834 C 315.3694 312.7742 315.5156 313.1351 315.4779 313.5637 C 315.4198 314.2287 314.6604 314.8943 313.2 315.5635 C 312.9551 315.6744 312.77 315.7611 312.6421 315.8243 C 312.084 316.0854 311.6344 316.423 311.2926 316.8394 C 310.9516 317.2561 310.7616 317.6955 310.7211 318.1601 C 310.6534 318.9345 310.8951 319.5729 311.4439 320.0766 C 311.9927 320.5831 312.7734 320.8796 313.7885 320.9683 C 314.1646 321.0012 314.5343 321.0046 314.8917 320.9811 C 315.2514 320.9547 315.597 320.9009 315.9334 320.8175 Z M 318.3613 321.484 L 319.7341 321.7258 L 321.4633 311.9216 L 320.0902 311.6792 Z M 321.2184 321.8732 L 327.9892 323.5615 L 328.2707 322.4336 L 325.565 321.7592 L 327.6924 313.2269 L 326.3323 312.8879 L 324.2049 321.4202 L 321.4996 320.7453 Z M 328.2772 323.4796 L 329.7963 324.0933 L 334.1174 320.7526 L 334.9539 326.1773 L 336.3639 326.7471 L 335.1464 319.9615 L 336.6901 316.1409 L 335.3837 315.6131 L 333.851 319.4073 Z M 345.9526 330.8009 C 345.1723 330.2943 344.749 329.5806 344.6796 328.6602 C 344.6113 327.7372 344.9109 326.7626 345.5765 325.7376 C 346.246 324.707 347.0145 324.0369 347.881 323.7299 C 348.749 323.4209 349.5722 323.5192 350.3523 324.0258 C 351.1304 324.5312 351.5547 325.243 351.6276 326.1628 C 351.7019 327.081 351.4042 328.0569 350.735 329.0879 C 350.0694 330.1126 349.2986 330.7813 348.4239 331.0917 C 347.5508 331.3998 346.7265 331.3037 345.9526 330.8009 Z M 345.3494 331.7295 C 346.5167 332.4878 347.6906 332.6998 348.8712 332.3656 C 350.0527 332.0354 351.078 331.1983 351.9482 329.8586 C 352.8207 328.5145 353.1696 327.2357 352.995 326.0245 C 352.8201 324.8099 352.1469 323.8226 350.9776 323.0631 C 349.8103 322.3052 348.6365 322.0931 347.4513 322.4245 C 346.2701 322.755 345.2414 323.5927 344.3689 324.9366 C 343.4987 326.2762 343.1531 327.5546 343.3317 328.7682 C 343.5109 329.9854 344.1821 330.9715 345.3494 331.7295 Z M 350.7262 335.0452 L 354.7276 338.2855 L 355.411 337.4416 L 352.493 335.0786 L 354.4991 332.6014 L 357.2983 334.868 L 358.0041 333.9961 L 355.2049 331.7295 L 358.0753 328.1854 L 356.9919 327.308 Z M 360.1471 343.1775 L 361.0619 344.23 L 364.3611 341.3616 L 363.765 347.3396 L 364.8634 348.603 L 365.4312 342.1772 L 372.6201 342.3512 L 371.4435 340.9974 L 364.9059 340.888 L 368.5757 337.6981 L 367.6609 336.6462 Z M 365.6228 349.4667 L 368.7146 353.8823 L 369.5922 353.2677 L 367.3001 349.9943 L 369.8878 348.1824 L 372.0552 351.2775 L 372.9739 350.634 L 370.8065 347.5392 L 373.6372 345.5569 L 376.005 348.9381 L 376.9452 348.2796 L 373.7784 343.7563 Z M 371.5713 356.3702 L 374.5375 354.7259 L 375.0568 355.6633 C 375.3941 356.2716 375.5245 356.8226 375.4483 357.3164 C 375.3717 357.8097 375.0999 358.1872 374.6293 358.4483 C 374.1273 358.7267 373.6698 358.7698 373.2565 358.5807 C 372.8443 358.3905 372.4489 357.9534 372.0711 357.2717 Z M 369.9655 355.6828 L 371.2663 358.0294 C 371.8168 359.0229 372.4172 359.6664 373.0683 359.9589 C 373.72 360.2511 374.4156 360.1939 375.1537 359.7846 C 375.7062 359.4784 376.0739 359.0614 376.259 358.5325 C 376.4432 358.001 376.4299 357.3955 376.2221 356.7098 C 376.4361 356.9326 376.6723 357.078 376.9302 357.1486 C 377.1879 357.2189 377.5728 357.2271 378.0882 357.1707 L 381.9447 356.7586 L 381.2202 355.4512 L 377.7358 355.8844 C 377.2843 355.9377 376.9194 355.8912 376.6402 355.7477 C 376.3621 355.6012 376.1073 355.3183 375.8743 354.8979 L 375.4871 354.1997 L 379.3419 352.0627 L 378.6729 350.856 Z M 376.5773 365.6503 L 380.4009 361.7853 L 381.9827 365.3379 Z M 375.1294 365.3969 L 375.819 366.946 L 386.5014 366.4619 L 385.8885 365.0854 L 383.1633 365.2495 L 381.2363 360.9213 L 383.1817 359.0053 L 382.6089 357.7187 Z M 377.5711 371.5322 L 378.002 372.8582 L 386.365 370.1409 L 387.5927 373.9187 L 388.698 373.5595 L 387.0397 368.456 Z M 381.2049 380.611 L 385.8987 377.8673 L 386.5068 381.7083 Z M 379.8717 379.9916 L 380.137 381.6663 L 390.581 383.9638 L 390.3452 382.4756 L 387.6701 381.9283 L 386.9289 377.2491 L 389.304 375.9021 L 389.0837 374.5108 Z" transform="matrix(2.7777777,0,0,-2.7777777,0,2200)"/>
</g>
</svg>