<svg width="54" height="54" viewBox="0 0 54 54" fill="none" xmlns="http://www.w3.org/2000/svg">
<path d="M47.2676 9.74707C48.3718 11.091 49.3463 12.545 50.1738 14.0898L49.9414 14.2158C50.7508 15.727 51.4172 17.3261 51.9229 18.9951L52.1758 18.918C52.675 20.5656 53.0196 22.2803 53.1914 24.0459L52.9277 24.0713C53.0106 24.9227 53.0527 25.7859 53.0527 26.6592C53.0527 27.5326 53.0106 28.3965 52.9277 29.248L53.1914 29.2725C53.0196 31.0381 52.674 32.7526 52.1748 34.4004L51.9229 34.3242C51.4172 35.9932 50.7508 37.5924 49.9414 39.1035L50.1748 39.2275C49.3472 40.7729 48.372 42.227 47.2676 43.5713L47.0635 43.4033C45.966 44.7391 44.7391 45.965 43.4033 47.0625L43.5713 47.2676C42.2273 48.3718 40.7734 49.3463 39.2285 50.1738L39.1035 49.9414C37.5924 50.7508 35.9932 51.4172 34.3242 51.9229L34.4004 52.1748C32.7526 52.674 31.0381 53.0196 29.2725 53.1914L29.248 52.9277C28.3965 53.0106 27.5326 53.0527 26.6592 53.0527C25.7859 53.0527 24.9227 53.0106 24.0713 52.9277L24.0459 53.1914C22.2803 53.0196 20.5656 52.675 18.918 52.1758L18.9951 51.9229C17.3261 51.4172 15.727 50.7508 14.2158 49.9414L14.0898 50.1738C12.545 49.3463 11.091 48.3718 9.74707 47.2676L9.91504 47.0625C8.57946 45.9651 7.35322 44.7389 6.25586 43.4033L6.05078 43.5713C4.94637 42.227 3.97116 40.7728 3.14355 39.2275L3.37793 39.1035C2.5685 37.5923 1.90118 35.9932 1.39551 34.3242L1.14258 34.4004C0.643408 32.7528 0.298701 31.038 0.126953 29.2725L0.391602 29.248C0.308732 28.3965 0.265625 27.5326 0.265625 26.6592C0.265637 25.7859 0.308747 24.9227 0.391602 24.0713L0.126953 24.0459C0.298747 22.2804 0.643368 20.5656 1.14258 18.918L1.39551 18.9951C1.90119 17.326 2.56847 15.7271 3.37793 14.2158L3.14453 14.0898C3.87984 12.7171 4.7311 11.4159 5.68652 10.2002L6.05078 9.74707L6.25586 9.91504C7.35329 8.57937 8.57937 7.35329 9.91504 6.25586L9.74707 6.05078C11.091 4.94664 12.545 3.97202 14.0898 3.14453L14.2158 3.37793C15.7271 2.56847 17.326 1.90119 18.9951 1.39551L18.918 1.14258C20.5656 0.643367 22.2804 0.298748 24.0459 0.126953L24.0713 0.391602C24.9227 0.308747 25.7859 0.265637 26.6592 0.265625C27.5326 0.265625 28.3965 0.308732 29.248 0.391602L29.2725 0.126953C31.038 0.2987 32.7528 0.64341 34.4004 1.14258L34.3242 1.39551C35.9932 1.90118 37.5923 2.5685 39.1035 3.37793L39.2285 3.14453C40.7734 3.972 42.2274 4.94665 43.5713 6.05078L43.4033 6.25586C44.7391 7.35334 45.966 8.57928 47.0635 9.91504L47.2676 9.74707Z" stroke="#2563EB" stroke-width="0.531791" stroke-dasharray="5.32 5.32"/>
</svg>
