<svg width="655" height="941" viewBox="0 0 655 941" fill="none" xmlns="http://www.w3.org/2000/svg">
<circle opacity="0.75" cx="242.094" cy="523.263" r="230.899" transform="rotate(-153.097 242.094 523.263)" stroke="#2563EB" stroke-width="1.77615"/>
<g opacity="0.5">
<mask id="path-2-inside-1_409_328" fill="white">
<path d="M-261.595 267.698C-277.92 299.874 -286.509 335.418 -286.677 371.498C-286.845 407.579 -278.587 443.201 -262.561 475.528C-246.535 507.854 -223.183 535.993 -194.365 557.705C-165.547 579.416 -132.059 594.099 -96.5654 600.586C-61.0722 607.073 -24.5547 605.185 10.08 595.071C44.7147 584.957 76.5099 566.897 102.935 542.329C129.359 517.761 149.683 487.363 162.289 453.556C174.895 419.748 179.434 383.465 175.545 347.594L-54.892 372.576L-261.595 267.698Z"/>
</mask>
<path d="M-261.595 267.698C-277.92 299.874 -286.509 335.418 -286.677 371.498C-286.845 407.579 -278.587 443.201 -262.561 475.528C-246.535 507.854 -223.183 535.993 -194.365 557.705C-165.547 579.416 -132.059 594.099 -96.5654 600.586C-61.0722 607.073 -24.5547 605.185 10.08 595.071C44.7147 584.957 76.5099 566.897 102.935 542.329C129.359 517.761 149.683 487.363 162.289 453.556C174.895 419.748 179.434 383.465 175.545 347.594L-54.892 372.576L-261.595 267.698Z" stroke="#2563EB" stroke-width="1.77615" mask="url(#path-2-inside-1_409_328)"/>
</g>
<path opacity="0.5" d="M-34.6288 382.857C-60.869 434.574 -72.0916 492.608 -67.0239 550.379C-61.9562 608.149 -40.8009 663.344 -5.95754 709.702C28.8858 756.06 76.0228 791.726 130.107 812.655C184.191 833.585 243.058 838.939 300.031 828.111C357.003 817.284 409.802 790.707 452.437 751.397C495.073 712.086 525.84 661.614 541.247 605.706C556.655 549.798 556.087 490.691 539.609 435.089C523.13 379.487 491.4 329.615 448.017 291.131" stroke="#2563EB" stroke-width="0.888074" stroke-dasharray="15.85 15.85"/>
</svg>
