<svg width="982" height="537" viewBox="0 0 982 537" fill="none" xmlns="http://www.w3.org/2000/svg">
<rect x="197" width="196.744" height="179" fill="#45BBA1"/>
<rect width="197" height="179" fill="#E371E3"/>
<rect x="393" width="197" height="179" fill="#3E80BF"/>
<rect x="785" y="269" width="197" height="89" fill="#45BBA1"/>
<rect x="785" y="179" width="197" height="90" fill="#3E80BF"/>
<rect x="785" y="358" width="197" height="179" fill="#3E80BF"/>
<rect x="589" y="357" width="196" height="179" fill="#E371E3"/>
<rect x="197" y="179" width="196.744" height="179" fill="#E371E3"/>
<rect y="179" width="197" height="179" fill="#F4BB40"/>
<rect x="590" width="392" height="179" fill="#45BBA1"/>
<rect x="393.592" y="179" width="391.874" height="179" fill="#F4BB40"/>
<rect y="358" width="589" height="178" fill="#3E80BF"/>
<path d="M108.458 486H41.0833V477.473C41.0833 462.581 46.9681 455.135 63.5416 449.49L82.7572 442.885C92.3651 439.402 95.7278 436.159 95.7278 429.074C95.7278 420.547 90.2033 416.223 75.7916 416.223C59.6985 416.223 53.6936 421.868 53.6936 432.436V433.878H40.9632V432.677C40.9632 417.784 51.1715 404.334 76.272 404.334C99.0905 404.334 108.698 415.142 108.698 429.314C108.698 442.525 100.171 449.49 85.9999 453.814L69.0661 458.978C58.2573 462.701 54.5343 466.544 54.5343 475.672L73.9901 474.351H108.458V486ZM154.57 487.201C130.31 487.201 115.899 471.348 115.899 445.767C115.899 420.307 130.31 404.334 154.57 404.334C178.83 404.334 193.242 420.307 193.242 445.767C193.242 471.348 178.83 487.201 154.57 487.201ZM154.57 474.711C171.744 474.711 179.43 465.824 179.43 445.767C179.43 425.711 171.744 416.824 154.57 416.824C137.396 416.824 129.59 425.711 129.59 445.767C129.59 465.824 137.396 474.711 154.57 474.711ZM215.832 486H202.862V405.535H215.832V439.882H240.212L263.751 405.535H279.124L251.021 445.287L279.004 486H263.631L240.452 452.373H215.832V486ZM335.363 470.748H324.074V451.172H304.738V440.363H324.074V420.787H335.363V440.363H354.699V451.172H335.363V470.748Z" fill="white"/>
<path d="M41.2175 511.662H37L47.5086 488.114H52.8508L63.3593 511.662H59.0716L56.3653 505.546H43.9237L41.2175 511.662ZM48.6333 494.967L45.435 502.137H54.8541L51.6558 494.967L50.2851 491.629H50.0039L48.6333 494.967ZM73.3759 512.013C67.7526 512.013 64.5543 509.799 64.5543 505.757V505.652H68.35V505.933C68.35 508.217 69.7207 508.956 73.3759 508.956C76.785 508.956 77.8043 508.253 77.8043 506.706C77.8043 505.265 76.9608 504.808 74.4654 504.457L69.6856 503.824C66.3819 503.402 64.3786 501.997 64.3786 499.08C64.3786 496.022 67.1551 493.843 72.5324 493.843C77.8746 493.843 81.108 495.987 81.108 500.134V500.239H77.3474V500.028C77.3474 497.955 76.293 496.865 72.427 496.865C69.2287 496.865 68.104 497.568 68.104 499.22C68.104 500.591 68.8069 501.083 71.4429 501.434L75.4846 501.997C79.6318 502.524 81.5297 503.93 81.5297 506.812C81.5297 510.08 78.2963 512.013 73.3759 512.013ZM88.0641 517.637H84.2683V494.194H87.7478V499.044H88.0641C88.767 495.811 91.2272 493.843 95.3393 493.843C100.752 493.843 103.809 497.533 103.809 502.946C103.809 508.358 100.822 512.013 95.3744 512.013C91.4381 512.013 88.9076 509.94 88.2047 506.741H88.0641V517.637ZM88.0641 503.227C88.0641 506.812 90.3486 508.569 94.074 508.569C97.8346 508.569 100.014 507.128 100.014 502.946C100.014 498.728 97.7995 497.322 94.1443 497.322C90.2431 497.322 88.0641 499.15 88.0641 502.91V503.227ZM110.236 492.156H106.44V488.114H110.236V492.156ZM110.236 511.662H106.44V494.194H110.236V511.662ZM117.547 511.662H113.751V494.194H117.23V498.904H117.476C118.004 496.092 119.902 493.843 123.486 493.843C127.458 493.843 129.18 496.69 129.18 499.993V502.278H125.419V500.731C125.419 498.236 124.365 497.076 121.764 497.076C118.777 497.076 117.547 498.728 117.547 501.856V511.662ZM135.36 492.156H131.564V488.114H135.36V492.156ZM135.36 511.662H131.564V494.194H135.36V511.662ZM142.67 511.662H138.875V494.194H142.354V499.607H142.6C143.127 496.654 145.447 493.843 149.875 493.843C154.725 493.843 157.115 497.111 157.115 501.153V511.662H153.32V502.172C153.32 498.904 151.844 497.252 148.224 497.252C144.393 497.252 142.67 499.22 142.67 503.016V511.662ZM168.089 510.08C162.888 510.08 159.795 506.812 159.795 501.962C159.795 497.111 163.028 493.843 168.335 493.843C171.99 493.843 174.732 495.495 175.364 498.552H175.575V494.194H179.055V509.623C179.055 515.493 175.399 517.988 169.671 517.988C164.504 517.988 160.919 515.563 160.919 511.345H164.68C164.68 513.876 166.156 514.825 169.882 514.825C173.853 514.825 175.294 513.735 175.294 509.834V505.546H175.048C174.415 508.182 172.061 510.08 168.089 510.08ZM163.626 501.962C163.626 505.546 165.734 506.812 169.319 506.812C173.185 506.812 175.294 505.195 175.294 502.102V501.61C175.294 498.658 173.115 497.147 169.425 497.147C165.769 497.147 163.626 498.377 163.626 501.962ZM200.031 512.013C192.72 512.013 187.87 507.233 187.87 499.888C187.87 492.542 192.72 487.763 200.031 487.763C206.673 487.763 211.312 491.277 211.312 496.901V497.393H207.13V496.901C207.13 493.316 204.846 491.383 200.066 491.383C194.548 491.383 191.877 494.019 191.877 499.888C191.877 505.757 194.548 508.358 200.066 508.358C204.846 508.358 207.13 506.46 207.13 502.84V502.383H211.312V502.84C211.312 508.499 206.708 512.013 200.031 512.013ZM217.904 511.662H214.109V488.114H217.904V499.536H218.115C218.713 496.584 220.857 493.843 225.32 493.843C230.135 493.843 232.49 497.006 232.49 501.259V511.662H228.729V502.172C228.729 498.658 227.148 497.252 223.528 497.252C219.381 497.252 217.904 499.501 217.904 503.192V511.662ZM241.034 512.013C237.414 512.013 235.13 510.326 235.13 507.444C235.13 504.738 237.309 503.332 240.753 502.946L248.696 502.102V501.083C248.696 498.201 247.431 497.182 244.092 497.182C240.859 497.182 239.277 498.236 239.277 500.802V500.942H235.517V500.802C235.517 496.83 238.82 493.843 244.373 493.843C249.926 493.843 252.422 496.865 252.422 501.048V511.662H248.942V507.304H248.696C247.782 510.256 245.006 512.013 241.034 512.013ZM238.926 507.198C238.926 508.604 239.875 509.272 242.054 509.272C246.025 509.272 248.696 507.796 248.696 504.351L241.843 505.125C239.875 505.371 238.926 505.828 238.926 507.198ZM259.606 511.662H255.81V494.194H259.289V499.607H259.535C260.063 496.654 262.382 493.843 266.811 493.843C271.661 493.843 274.051 497.111 274.051 501.153V511.662H270.255V502.172C270.255 498.904 268.779 497.252 265.159 497.252C261.328 497.252 259.606 499.22 259.606 503.016V511.662ZM285.024 510.08C279.823 510.08 276.73 506.812 276.73 501.962C276.73 497.111 279.963 493.843 285.27 493.843C288.926 493.843 291.667 495.495 292.3 498.552H292.51V494.194H295.99V509.623C295.99 515.493 292.335 517.988 286.606 517.988C281.439 517.988 277.855 515.563 277.855 511.345H281.615C281.615 513.876 283.091 514.825 286.817 514.825C290.788 514.825 292.229 513.735 292.229 509.834V505.546H291.983C291.351 508.182 288.996 510.08 285.024 510.08ZM280.561 501.962C280.561 505.546 282.67 506.812 286.254 506.812C290.121 506.812 292.229 505.195 292.229 502.102V501.61C292.229 498.658 290.05 497.147 286.36 497.147C282.705 497.147 280.561 498.377 280.561 501.962ZM308.288 512.013C302.56 512.013 298.799 508.78 298.799 502.946C298.799 497.498 302.524 493.843 308.218 493.843C313.631 493.843 317.321 496.83 317.321 502.137C317.321 502.77 317.286 503.262 317.18 503.789H302.349C302.489 507.163 304.141 508.956 308.183 508.956C311.838 508.956 313.349 507.761 313.349 505.687V505.406H317.145V505.722C317.145 509.448 313.49 512.013 308.288 512.013ZM308.148 496.83C304.282 496.83 302.595 498.552 302.384 501.68H313.736V501.61C313.736 498.377 311.873 496.83 308.148 496.83ZM329.966 511.662H326.17V488.114H331.337L338.12 501.751L340.264 506.636H340.545L342.618 501.751L349.331 488.114H354.498V511.662H350.702V497.217L350.843 493.808H350.561L349.12 497.217L342.618 510.256H338.049L331.547 497.217L330.107 493.808H329.825L329.966 497.217V511.662ZM363.152 512.013C359.532 512.013 357.248 510.326 357.248 507.444C357.248 504.738 359.427 503.332 362.871 502.946L370.814 502.102V501.083C370.814 498.201 369.549 497.182 366.21 497.182C362.977 497.182 361.395 498.236 361.395 500.802V500.942H357.634V500.802C357.634 496.83 360.938 493.843 366.491 493.843C372.044 493.843 374.54 496.865 374.54 501.048V511.662H371.06V507.304H370.814C369.9 510.256 367.124 512.013 363.152 512.013ZM361.044 507.198C361.044 508.604 361.993 509.272 364.172 509.272C368.143 509.272 370.814 507.796 370.814 504.351L363.961 505.125C361.993 505.371 361.044 505.828 361.044 507.198ZM381.724 511.662H377.928V488.114H381.724V501.118H386.714L391.951 494.194H396.379L389.807 502.594L396.344 511.662H391.881L386.714 504.527H381.724V511.662ZM407.033 512.013C401.304 512.013 397.544 508.78 397.544 502.946C397.544 497.498 401.269 493.843 406.963 493.843C412.375 493.843 416.065 496.83 416.065 502.137C416.065 502.77 416.03 503.262 415.925 503.789H401.093C401.234 507.163 402.886 508.956 406.928 508.956C410.583 508.956 412.094 507.761 412.094 505.687V505.406H415.89V505.722C415.89 509.448 412.235 512.013 407.033 512.013ZM406.892 496.83C403.026 496.83 401.339 498.552 401.128 501.68H412.481V501.61C412.481 498.377 410.618 496.83 406.892 496.83ZM422.704 511.662H418.908V494.194H422.388V498.904H422.634C423.161 496.092 425.059 493.843 428.644 493.843C432.615 493.843 434.337 496.69 434.337 499.993V502.278H430.577V500.731C430.577 498.236 429.522 497.076 426.922 497.076C423.934 497.076 422.704 498.728 422.704 501.856V511.662ZM444.981 512.013C439.357 512.013 436.159 509.799 436.159 505.757V505.652H439.955V505.933C439.955 508.217 441.326 508.956 444.981 508.956C448.39 508.956 449.409 508.253 449.409 506.706C449.409 505.265 448.566 504.808 446.07 504.457L441.291 503.824C437.987 503.402 435.983 501.997 435.983 499.08C435.983 496.022 438.76 493.843 444.137 493.843C449.479 493.843 452.713 495.987 452.713 500.134V500.239H448.952V500.028C448.952 497.955 447.898 496.865 444.032 496.865C440.834 496.865 439.709 497.568 439.709 499.22C439.709 500.591 440.412 501.083 443.048 501.434L447.09 501.997C451.237 502.524 453.135 503.93 453.135 506.812C453.135 510.08 449.901 512.013 444.981 512.013Z" fill="white"/>
<path d="M61.5353 297H52.1388V252.628H37.87V245.928H40.6542C47.0925 245.928 50.7467 244.275 53.2699 238.707H61.5353V297ZM79.635 297H70.2385V238.707H79.635V263.59H97.2969L114.35 238.707H125.486L105.127 267.505L125.399 297H114.263L97.4709 272.639H79.635V297ZM151.36 285.95H143.182V271.769H129.174V263.938H143.182V249.757H151.36V263.938H165.368V271.769H151.36V285.95Z" fill="white"/>
<path d="M18.0229 324H15.2731V306.941H18.2266L25.865 316.922L28.0801 320.104H28.2838L28.1565 317.024V306.941H30.9063V324H27.9528L20.2635 314.045L18.1247 311.04H17.921L18.0229 313.994V324ZM39.9162 324.255C35.7151 324.255 32.8889 321.581 32.8889 317.686C32.8889 313.739 35.7151 311.091 39.9162 311.091C44.1428 311.091 46.969 313.739 46.969 317.686C46.969 321.581 44.1428 324.255 39.9162 324.255ZM39.9162 321.81C42.997 321.81 44.2701 320.359 44.2701 317.686C44.2701 314.987 42.997 313.51 39.9162 313.51C36.8609 313.51 35.5878 314.987 35.5878 317.686C35.5878 320.359 36.8609 321.81 39.9162 321.81ZM54.5406 324.255C50.5431 324.255 48.328 321.581 48.328 317.686C48.328 313.739 50.5177 311.091 54.3623 311.091C57.3668 311.091 59.0727 312.644 59.5819 314.783H59.7347V306.941H62.4845V324H59.9638V320.359H59.7856C59.2509 322.88 57.3922 324.255 54.5406 324.255ZM51.1033 317.686C51.1033 320.715 52.6564 321.734 55.3808 321.734C58.0797 321.734 59.7347 320.461 59.7347 317.813V317.609C59.7347 314.91 58.1561 313.586 55.3299 313.586C52.6819 313.586 51.1033 314.63 51.1033 317.686ZM68.7444 324.255C66.1219 324.255 64.4669 323.032 64.4669 320.945C64.4669 318.984 66.0455 317.966 68.5407 317.686L74.2949 317.075V316.336C74.2949 314.248 73.3783 313.51 70.9595 313.51C68.6171 313.51 67.4713 314.274 67.4713 316.132V316.234H64.747V316.132C64.747 313.255 67.1403 311.091 71.1632 311.091C75.1861 311.091 76.9938 313.281 76.9938 316.311V324H74.4732V320.843H74.2949C73.6329 322.982 71.6215 324.255 68.7444 324.255ZM67.2167 320.766C67.2167 321.785 67.9042 322.269 69.4828 322.269C72.3599 322.269 74.2949 321.199 74.2949 318.704L69.33 319.264C67.9042 319.442 67.2167 319.773 67.2167 320.766ZM82.1983 324H79.4485V306.941H82.1983V324ZM97.4727 324.255C92.1258 324.255 88.5867 320.792 88.5867 315.47C88.5867 310.149 92.1258 306.686 97.4727 306.686C102.87 306.686 106.384 310.149 106.384 315.47C106.384 320.792 102.87 324.255 97.4727 324.255ZM97.4727 321.607C101.521 321.607 103.482 319.723 103.482 315.47C103.482 311.218 101.521 309.309 97.4727 309.309C93.4243 309.309 91.4893 311.218 91.4893 315.47C91.4893 319.723 93.4243 321.607 97.4727 321.607ZM112.133 324H109.383V313.637H107.474V311.346H109.409C109.714 308.57 111.827 306.941 115.418 306.941H116.665V308.978H114.985C112.973 308.978 111.929 309.513 112.082 311.346H116.665V313.637H112.133V324ZM121.477 324H118.753V313.637H116.818V311.346H118.778C119.084 308.57 121.172 306.941 124.762 306.941H126.009V308.978H124.329C122.318 308.978 121.299 309.513 121.426 311.346H126.009V313.637H121.477V324ZM130.287 309.869H127.563V306.941H130.287V309.869ZM130.287 324H127.563V311.346H130.287V324ZM139.248 324.255C135.073 324.255 132.348 321.581 132.348 317.686C132.348 313.739 135.073 311.091 139.248 311.091C143.042 311.091 145.817 313.23 145.817 316.387V316.642H143.093V316.489C143.093 314.528 141.667 313.561 139.197 313.561C136.346 313.561 135.073 314.91 135.073 317.686C135.073 320.41 136.346 321.785 139.197 321.785C141.667 321.785 143.093 320.817 143.093 318.857V318.679H145.817V318.959C145.817 322.116 143.042 324.255 139.248 324.255ZM154.216 324.255C150.066 324.255 147.342 321.912 147.342 317.686C147.342 313.739 150.041 311.091 154.165 311.091C158.086 311.091 160.76 313.255 160.76 317.1C160.76 317.558 160.734 317.915 160.658 318.297H149.913C150.015 320.741 151.212 322.039 154.14 322.039C156.788 322.039 157.883 321.174 157.883 319.672V319.468H160.632V319.697C160.632 322.396 157.984 324.255 154.216 324.255ZM154.114 313.255C151.314 313.255 150.091 314.503 149.939 316.769H158.163V316.718C158.163 314.376 156.813 313.255 154.114 313.255ZM165.569 324H162.819V311.346H165.34V314.758H165.518C165.9 312.721 167.275 311.091 169.872 311.091C172.749 311.091 173.997 313.153 173.997 315.547V317.202H171.272V316.082C171.272 314.274 170.509 313.434 168.624 313.434C166.46 313.434 165.569 314.63 165.569 316.896V324ZM181.707 324.255C177.634 324.255 175.317 322.651 175.317 319.723V319.646H178.066V319.85C178.066 321.505 179.059 322.039 181.707 322.039C184.177 322.039 184.916 321.53 184.916 320.41C184.916 319.366 184.304 319.035 182.497 318.78L179.034 318.322C176.641 318.017 175.189 316.998 175.189 314.885C175.189 312.67 177.201 311.091 181.096 311.091C184.966 311.091 187.309 312.644 187.309 315.649V315.725H184.585V315.572C184.585 314.07 183.821 313.281 181.02 313.281C178.703 313.281 177.888 313.79 177.888 314.987C177.888 315.98 178.397 316.336 180.307 316.591L183.235 316.998C186.24 317.38 187.614 318.399 187.614 320.486C187.614 322.854 185.272 324.255 181.707 324.255Z" fill="white"/>
<path d="M244.635 274H237.881V242.107H227.625V237.292H229.626C234.254 237.292 236.881 236.104 238.694 232.101H244.635V274ZM268.838 274.625C256.581 274.625 249.952 269.81 249.952 261.368V260.68H256.831V261.368C256.831 266.308 260.583 268.497 268.963 268.497C276.467 268.497 279.907 266.246 279.907 260.367C279.907 254.614 276.593 252.425 268.963 252.425C262.96 252.425 259.458 253.426 257.081 255.552L256.644 255.427V255.552L250.39 255.114L252.641 232.101H284.972V238.167H258.52L257.019 251.862L257.519 251.925C259.645 249.611 264.523 247.047 271.465 247.047C281.22 247.047 286.973 251.737 286.973 260.367C286.973 269.06 280.657 274.625 268.838 274.625ZM311.181 274.625C298.549 274.625 291.045 266.371 291.045 253.051C291.045 239.793 298.549 231.476 311.181 231.476C323.814 231.476 331.318 239.793 331.318 253.051C331.318 266.371 323.814 274.625 311.181 274.625ZM311.181 268.122C320.124 268.122 324.126 263.494 324.126 253.051C324.126 242.607 320.124 237.98 311.181 237.98C302.239 237.98 298.174 242.607 298.174 253.051C298.174 263.494 302.239 268.122 311.181 268.122ZM351.336 266.058H345.457V255.865H335.389V250.237H345.457V240.043H351.336V250.237H361.404V255.865H351.336V266.058Z" fill="white"/>
<path d="M230.637 297.43H228.151V282.007H230.821L237.727 291.03L239.729 293.908H239.913L239.798 291.122V282.007H242.284V297.43H239.614L232.663 288.429L230.729 285.713H230.545L230.637 288.383V297.43ZM256.921 297.43H244.583V282.007H256.921V284.24H247.069V288.567H256.576V290.777H247.069V295.197H256.921V297.43ZM265.326 297.66C260.722 297.66 258.374 295.634 258.374 292.388V292.25H260.86V292.619C260.86 294.46 261.942 295.381 265.326 295.381C268.272 295.381 269.308 294.736 269.308 293.286C269.308 291.951 268.525 291.445 266.569 291.076L262.794 290.455C260.193 289.995 258.351 288.798 258.351 286.266C258.351 284.033 260.193 281.777 264.98 281.777C269.492 281.777 271.541 284.033 271.541 287.048V287.186H269.078V286.887C269.078 284.999 267.95 284.056 264.75 284.056C261.942 284.056 260.837 284.746 260.837 286.127C260.837 287.462 261.62 287.9 263.438 288.291L267.19 288.936C270.275 289.488 271.794 290.892 271.794 293.148C271.794 295.496 269.883 297.66 265.326 297.66ZM281.224 297.43H278.761V284.24H272.684V282.007H287.278V284.24H281.224V297.43ZM230.637 320.43H228.151V305.007H231.535L235.977 313.938L237.381 317.138H237.566L238.924 313.938L243.32 305.007H246.704V320.43H244.218V310.969L244.31 308.736H244.126L243.182 310.969L238.924 319.509H235.931L231.673 310.969L230.729 308.736H230.545L230.637 310.969V320.43ZM254.766 320.66C251.014 320.66 248.551 318.542 248.551 314.721C248.551 311.153 250.991 308.759 254.72 308.759C258.265 308.759 260.682 310.716 260.682 314.192C260.682 314.606 260.659 314.928 260.59 315.273H250.876C250.968 317.483 252.05 318.657 254.697 318.657C257.091 318.657 258.081 317.874 258.081 316.516V316.332H260.567V316.539C260.567 318.979 258.173 320.66 254.766 320.66ZM254.674 310.716C252.142 310.716 251.037 311.844 250.899 313.892H258.334V313.846C258.334 311.729 257.114 310.716 254.674 310.716ZM265.03 320.43H262.544V308.989H264.823V312.442H264.961C265.26 310.532 266.503 308.759 269.358 308.759C271.959 308.759 273.363 310.347 273.685 312.534H273.823C274.122 310.578 275.411 308.759 278.312 308.759C281.281 308.759 282.777 310.785 282.777 313.547V320.43H280.314V314.215C280.314 311.959 279.417 310.992 277.207 310.992C274.767 310.992 273.892 312.235 273.892 314.767V320.43H271.429V314.215C271.429 311.959 270.555 310.992 268.345 310.992C265.882 310.992 265.03 312.235 265.03 314.767V320.43ZM287.28 320.43H285.001V305.007H287.487V312.097H287.625C288.085 310.163 289.604 308.759 292.344 308.759C295.866 308.759 297.799 311.153 297.799 314.721C297.799 318.243 295.843 320.66 292.206 320.66C289.604 320.66 287.924 319.417 287.441 317.138H287.28V320.43ZM287.487 314.836C287.487 317.23 288.96 318.381 291.423 318.381C293.932 318.381 295.313 317.46 295.313 314.721C295.313 311.959 293.909 311.015 291.469 311.015C288.891 311.015 287.487 312.212 287.487 314.652V314.836ZM305.277 320.66C301.525 320.66 299.062 318.542 299.062 314.721C299.062 311.153 301.502 308.759 305.231 308.759C308.776 308.759 311.193 310.716 311.193 314.192C311.193 314.606 311.17 314.928 311.101 315.273H301.387C301.479 317.483 302.561 318.657 305.208 318.657C307.602 318.657 308.592 317.874 308.592 316.516V316.332H311.078V316.539C311.078 318.979 308.684 320.66 305.277 320.66ZM305.185 310.716C302.653 310.716 301.548 311.844 301.41 313.892H308.845V313.846C308.845 311.729 307.625 310.716 305.185 310.716ZM315.541 320.43H313.055V308.989H315.334V312.074H315.495C315.84 310.232 317.083 308.759 319.431 308.759C322.032 308.759 323.16 310.624 323.16 312.787V314.284H320.697V313.271C320.697 311.636 320.006 310.877 318.303 310.877C316.346 310.877 315.541 311.959 315.541 314.007V320.43ZM330.131 320.66C326.448 320.66 324.353 319.21 324.353 316.562V316.493H326.839V316.678C326.839 318.174 327.737 318.657 330.131 318.657C332.364 318.657 333.031 318.197 333.031 317.184C333.031 316.24 332.479 315.941 330.844 315.711L327.714 315.296C325.55 315.02 324.238 314.099 324.238 312.189C324.238 310.186 326.057 308.759 329.578 308.759C333.077 308.759 335.195 310.163 335.195 312.879V312.948H332.732V312.81C332.732 311.452 332.041 310.739 329.509 310.739C327.415 310.739 326.678 311.199 326.678 312.281C326.678 313.179 327.138 313.501 328.865 313.731L331.512 314.099C334.228 314.445 335.471 315.365 335.471 317.253C335.471 319.394 333.353 320.66 330.131 320.66Z" fill="white"/>
<path d="M453.074 106.625C440.817 106.625 434.189 101.81 434.189 93.3678V92.68H441.068V93.3678C441.068 98.3081 444.82 100.497 453.2 100.497C460.704 100.497 464.143 98.2456 464.143 92.3673C464.143 86.614 460.829 84.4253 453.2 84.4253C447.196 84.4253 443.694 85.4258 441.318 87.5521L440.88 87.427V87.5521L434.626 87.1143L436.878 64.1013H469.209V70.1672H442.756L441.255 83.8625L441.756 83.925C443.882 81.6112 448.759 79.0472 455.701 79.0472C465.456 79.0472 471.21 83.7374 471.21 92.3673C471.21 101.06 464.894 106.625 453.074 106.625ZM494.48 106.625C482.223 106.625 475.594 101.81 475.594 93.3678V92.68H482.473V93.3678C482.473 98.3081 486.225 100.497 494.605 100.497C502.109 100.497 505.548 98.2456 505.548 92.3673C505.548 86.614 502.234 84.4253 494.605 84.4253C488.601 84.4253 485.099 85.4258 482.723 87.5521L482.285 87.427V87.5521L476.032 87.1143L478.283 64.1013H510.614V70.1672H484.161L482.661 83.8625L483.161 83.925C485.287 81.6112 490.165 79.0472 497.106 79.0472C506.862 79.0472 512.615 83.7374 512.615 92.3673C512.615 101.06 506.299 106.625 494.48 106.625ZM532.133 106.063H524.504C524.504 86.614 534.322 77.2962 542.889 70.6675V70.1672H515.436V64.1013H550.081V69.5419C538.011 80.4856 532.133 89.4907 532.133 106.063Z" fill="white"/>
<path d="M435.637 129.43H433.151V114.007H435.637V129.43ZM450.277 129.43H437.939V114.007H450.277V116.24H440.425V120.567H449.932V122.777H440.425V127.197H450.277V129.43ZM459.372 129.43H452.351V114.007H459.372C464.16 114.007 467.175 116.954 467.175 121.718C467.175 126.483 464.16 129.43 459.372 129.43ZM459.372 116.24H454.814V127.197H459.372C462.94 127.197 464.551 125.678 464.551 121.718C464.551 117.759 462.94 116.24 459.372 116.24ZM476.532 129.66C471.744 129.66 468.567 126.529 468.567 121.718C468.567 116.908 471.744 113.777 476.532 113.777C480.882 113.777 483.921 116.079 483.921 119.762V120.084H481.182V119.762C481.182 117.414 479.685 116.148 476.555 116.148C472.941 116.148 471.191 117.874 471.191 121.718C471.191 125.563 472.941 127.266 476.555 127.266C479.685 127.266 481.182 126.023 481.182 123.652V123.353H483.921V123.652C483.921 127.358 480.905 129.66 476.532 129.66ZM491.162 129.66C487.479 129.66 485.384 128.21 485.384 125.563V125.493H487.87V125.678C487.87 127.174 488.768 127.657 491.162 127.657C493.394 127.657 494.062 127.197 494.062 126.184C494.062 125.24 493.509 124.941 491.875 124.711L488.745 124.297C486.581 124.02 485.269 123.1 485.269 121.189C485.269 119.186 487.087 117.759 490.609 117.759C494.108 117.759 496.226 119.163 496.226 121.88V121.949H493.763V121.811C493.763 120.452 493.072 119.739 490.54 119.739C488.445 119.739 487.709 120.199 487.709 121.281C487.709 122.179 488.169 122.501 489.896 122.731L492.543 123.1C495.259 123.445 496.502 124.366 496.502 126.253C496.502 128.394 494.384 129.66 491.162 129.66Z" fill="white"/>
<path d="M474.113 309.201C450.574 309.201 437.844 299.953 437.844 283.74V282.419H451.054V283.74C451.054 293.228 458.26 297.431 474.353 297.431C488.765 297.431 495.37 293.108 495.37 281.819C495.37 270.77 489.005 266.566 474.353 266.566C462.824 266.566 456.098 268.488 451.535 272.571L450.694 272.331V272.571L438.684 271.73L443.008 227.535H505.098V239.184H454.297L451.415 265.485L452.375 265.605C456.459 261.162 465.826 256.238 479.157 256.238C497.892 256.238 508.941 265.245 508.941 281.819C508.941 298.512 496.812 309.201 474.113 309.201ZM532.133 308H519.163V227.535H532.133V261.882H556.513L580.052 227.535H595.425L567.322 267.287L595.305 308H579.932L556.753 274.373H532.133V308ZM651.664 292.748H640.375V273.172H621.04V262.363H640.375V242.787H651.664V262.363H671V273.172H651.664V292.748Z" fill="white"/>
<path d="M453.708 335.367H435.397V311.819H439.193V331.958H453.708V335.367ZM464.949 335.718C459.22 335.718 455.459 332.485 455.459 326.651C455.459 321.203 459.185 317.548 464.878 317.548C470.291 317.548 473.981 320.535 473.981 325.842C473.981 326.475 473.946 326.967 473.841 327.494H459.009C459.15 330.868 460.802 332.66 464.843 332.66C468.498 332.66 470.01 331.466 470.01 329.392V329.111H473.805V329.427C473.805 333.153 470.15 335.718 464.949 335.718ZM464.808 320.535C460.942 320.535 459.255 322.257 459.044 325.385H470.396V325.315C470.396 322.082 468.534 320.535 464.808 320.535ZM481.955 335.718C478.335 335.718 476.051 334.031 476.051 331.149C476.051 328.443 478.23 327.037 481.674 326.651L489.617 325.807V324.788C489.617 321.906 488.352 320.887 485.013 320.887C481.78 320.887 480.198 321.941 480.198 324.507V324.647H476.438V324.507C476.438 320.535 479.741 317.548 485.294 317.548C490.847 317.548 493.343 320.57 493.343 324.753V335.367H489.863V331.009H489.617C488.703 333.961 485.927 335.718 481.955 335.718ZM479.847 330.903C479.847 332.309 480.796 332.977 482.975 332.977C486.946 332.977 489.617 331.501 489.617 328.056L482.764 328.83C480.796 329.076 479.847 329.532 479.847 330.903ZM504.428 335.718C498.91 335.718 495.852 332.028 495.852 326.651C495.852 321.203 498.875 317.548 504.182 317.548C508.329 317.548 510.684 319.692 511.387 322.644H511.598V311.819H515.393V335.367H511.914V330.341H511.668C510.93 333.82 508.364 335.718 504.428 335.718ZM499.683 326.651C499.683 330.833 501.827 332.239 505.588 332.239C509.313 332.239 511.598 330.481 511.598 326.826V326.545C511.598 322.82 509.419 320.992 505.517 320.992C501.862 320.992 499.683 322.433 499.683 326.651ZM527.162 335.718C521.539 335.718 518.341 333.504 518.341 329.462V329.357H522.136V329.638C522.136 331.922 523.507 332.66 527.162 332.66C530.571 332.66 531.591 331.958 531.591 330.411C531.591 328.97 530.747 328.513 528.252 328.162L523.472 327.529C520.168 327.107 518.165 325.702 518.165 322.785C518.165 319.727 520.941 317.548 526.319 317.548C531.661 317.548 534.894 319.692 534.894 323.839V323.944H531.134V323.733C531.134 321.66 530.079 320.57 526.213 320.57C523.015 320.57 521.89 321.273 521.89 322.925C521.89 324.296 522.593 324.788 525.229 325.139L529.271 325.702C533.418 326.229 535.316 327.635 535.316 330.517C535.316 333.785 532.083 335.718 527.162 335.718Z" fill="white"/>
<path d="M634.785 471.786C619.368 471.786 611.03 465.73 611.03 455.111V454.246H619.682V455.111C619.682 461.325 624.402 464.078 634.942 464.078C644.381 464.078 648.707 461.246 648.707 453.852C648.707 446.616 644.538 443.863 634.942 443.863C627.391 443.863 622.986 445.121 619.997 447.796L619.446 447.639V447.796L611.58 447.245L614.412 418.299H655.078V425.929H621.806L619.918 443.155L620.547 443.234C623.222 440.323 629.357 437.098 638.088 437.098C650.359 437.098 657.595 442.998 657.595 453.852C657.595 464.786 649.651 471.786 634.785 471.786ZM672.785 471H664.29V418.299H672.785V440.795H688.752L704.169 418.299H714.238L695.832 444.335L714.159 471H704.091L688.91 448.976H672.785V471ZM751.072 461.01H743.678V448.189H731.014V441.11H743.678V428.289H751.072V441.11H763.735V448.189H751.072V461.01Z" fill="white"/>
<path d="M611.914 492.78H609.428V477.357H611.914V492.78ZM619.257 493.01C615.643 493.01 613.64 490.593 613.64 487.071C613.64 483.503 615.62 481.109 619.096 481.109C621.812 481.109 623.354 482.513 623.815 484.447H623.953V477.357H626.439V492.78H624.16V489.488H623.999C623.515 491.767 621.835 493.01 619.257 493.01ZM616.149 487.071C616.149 489.81 617.554 490.731 620.017 490.731C622.457 490.731 623.953 489.58 623.953 487.186V487.002C623.953 484.562 622.526 483.365 619.971 483.365C617.577 483.365 616.149 484.309 616.149 487.071ZM634.492 493.01C630.74 493.01 628.277 490.892 628.277 487.071C628.277 483.503 630.717 481.109 634.446 481.109C637.991 481.109 640.408 483.066 640.408 486.542C640.408 486.956 640.385 487.278 640.316 487.624H630.602C630.694 489.833 631.776 491.007 634.423 491.007C636.817 491.007 637.807 490.225 637.807 488.867V488.682H640.293V488.89C640.293 491.33 637.899 493.01 634.492 493.01ZM634.4 483.066C631.868 483.066 630.763 484.194 630.625 486.242H638.06V486.196C638.06 484.079 636.84 483.066 634.4 483.066ZM645.631 493.01C643.26 493.01 641.763 491.905 641.763 490.018C641.763 488.245 643.191 487.324 645.446 487.071L650.649 486.519V485.851C650.649 483.964 649.82 483.296 647.633 483.296C645.515 483.296 644.48 483.987 644.48 485.667V485.759H642.017V485.667C642.017 483.066 644.18 481.109 647.817 481.109C651.454 481.109 653.089 483.089 653.089 485.828V492.78H650.81V489.925H650.649C650.05 491.859 648.232 493.01 645.631 493.01ZM644.249 489.856C644.249 490.777 644.871 491.215 646.298 491.215C648.899 491.215 650.649 490.248 650.649 487.992L646.16 488.498C644.871 488.659 644.249 488.959 644.249 489.856ZM660.717 493.01C657.034 493.01 654.939 491.56 654.939 488.913V488.844H657.425V489.028C657.425 490.524 658.323 491.007 660.717 491.007C662.95 491.007 663.618 490.547 663.618 489.534C663.618 488.59 663.065 488.291 661.431 488.061L658.3 487.647C656.136 487.37 654.824 486.45 654.824 484.539C654.824 482.536 656.643 481.109 660.165 481.109C663.664 481.109 665.781 482.513 665.781 485.23V485.299H663.318V485.161C663.318 483.803 662.628 483.089 660.096 483.089C658.001 483.089 657.264 483.549 657.264 484.631C657.264 485.529 657.725 485.851 659.451 486.081L662.098 486.45C664.814 486.795 666.057 487.716 666.057 489.603C666.057 491.744 663.94 493.01 660.717 493.01Z" fill="white"/>
<path d="M825.927 466.628C812.731 466.628 806.949 460.784 806.949 452.238V451.232H814.113V452.112C814.113 457.642 816.375 460.219 825.676 460.219C834.411 460.219 837.553 458.208 837.553 453.243C837.553 448.97 834.662 447.022 829.383 447.022H817.632V441.366H828.441C833.531 441.366 836.17 439.481 836.17 435.711C836.17 431.626 833.657 429.678 825.487 429.678C816.878 429.678 814.113 432.255 814.113 437.785V438.224H806.949V437.659C806.949 429.427 812.982 423.268 826.053 423.268C836.799 423.268 842.894 427.227 842.894 434.391C842.894 439.167 840.066 442.56 834.662 443.44V443.943C840.758 445.011 844.402 448.405 844.402 454.249C844.402 462.23 837.427 466.628 825.927 466.628ZM867.174 466.628C854.857 466.628 848.196 461.79 848.196 453.306V452.615H855.108V453.306C855.108 458.271 858.879 460.47 867.299 460.47C874.84 460.47 878.297 458.208 878.297 452.301C878.297 446.519 874.966 444.32 867.299 444.32C861.267 444.32 857.748 445.325 855.36 447.462L854.92 447.336V447.462L848.636 447.022L850.898 423.897H883.387V429.992H856.805L855.297 443.754L855.8 443.817C857.936 441.492 862.838 438.916 869.813 438.916C879.616 438.916 885.398 443.629 885.398 452.301C885.398 461.036 879.051 466.628 867.174 466.628ZM909.724 466.628C897.03 466.628 889.489 458.333 889.489 444.948C889.489 431.626 897.03 423.268 909.724 423.268C922.418 423.268 929.958 431.626 929.958 444.948C929.958 458.333 922.418 466.628 909.724 466.628ZM909.724 460.093C918.71 460.093 922.732 455.443 922.732 444.948C922.732 434.454 918.71 429.804 909.724 429.804C900.738 429.804 896.653 434.454 896.653 444.948C896.653 455.443 900.738 460.093 909.724 460.093ZM950.074 458.019H944.167V447.776H934.05V442.121H944.167V431.877H950.074V442.121H960.191V447.776H950.074V458.019Z" fill="white"/>
<path d="M808.165 483.503H806.045V470.354H812.482C815.406 470.354 817.408 472.022 817.408 474.946C817.408 477.851 815.406 479.539 812.482 479.539H808.165V483.503ZM812.286 472.258H808.165V477.635H812.286C814.268 477.635 815.289 476.889 815.289 474.946C815.289 473.003 814.268 472.258 812.286 472.258ZM820.794 483.503H818.675V473.749H820.618V476.379H820.755C821.05 474.809 822.109 473.553 824.111 473.553C826.329 473.553 827.29 475.143 827.29 476.987V478.263H825.19V477.399C825.19 476.006 824.602 475.358 823.149 475.358C821.481 475.358 820.794 476.281 820.794 478.027V483.503ZM833.528 483.699C830.329 483.699 828.229 481.894 828.229 478.636C828.229 475.594 830.309 473.553 833.488 473.553C836.511 473.553 838.571 475.221 838.571 478.184C838.571 478.538 838.552 478.812 838.493 479.107H830.211C830.29 480.991 831.212 481.992 833.469 481.992C835.51 481.992 836.354 481.324 836.354 480.167V480.01H838.473V480.186C838.473 482.266 836.432 483.699 833.528 483.699ZM833.449 475.221C831.29 475.221 830.348 476.183 830.231 477.929H836.57V477.89C836.57 476.085 835.529 475.221 833.449 475.221ZM845.632 483.503H843.513V470.354H845.632V483.503ZM849.714 483.503H847.595V473.749H849.538V476.771H849.675C849.969 475.123 851.265 473.553 853.737 473.553C856.446 473.553 857.78 475.378 857.78 477.635V483.503H855.661V478.204C855.661 476.379 854.836 475.457 852.815 475.457C850.676 475.457 849.714 476.556 849.714 478.675V483.503ZM864.595 483.699C861.376 483.699 859.276 481.638 859.276 478.636C859.276 475.594 861.376 473.553 864.595 473.553C867.519 473.553 869.658 475.201 869.658 477.635V477.831H867.558V477.713C867.558 476.202 866.459 475.457 864.555 475.457C862.357 475.457 861.376 476.497 861.376 478.636C861.376 480.736 862.357 481.795 864.555 481.795C866.459 481.795 867.558 481.05 867.558 479.539V479.401H869.658V479.617C869.658 482.051 867.519 483.699 864.595 483.699ZM875.287 483.699C872.54 483.699 871.206 481.874 871.206 479.617V473.749H873.305V479.048C873.305 480.873 874.149 481.795 876.21 481.795C878.369 481.795 879.369 480.696 879.369 478.577V473.749H881.469V483.503H879.526V480.481H879.409C879.095 482.129 877.799 483.699 875.287 483.699ZM885.338 483.503H883.395V470.354H885.514V476.399H885.632C886.025 474.75 887.32 473.553 889.655 473.553C892.658 473.553 894.306 475.594 894.306 478.636C894.306 481.638 892.638 483.699 889.537 483.699C887.32 483.699 885.887 482.639 885.475 480.696H885.338V483.503ZM885.514 478.734C885.514 480.775 886.77 481.756 888.87 481.756C891.009 481.756 892.187 480.971 892.187 478.636C892.187 476.281 890.99 475.476 888.909 475.476C886.711 475.476 885.514 476.497 885.514 478.577V478.734ZM898.641 483.699C896.619 483.699 895.344 482.757 895.344 481.148C895.344 479.637 896.56 478.852 898.484 478.636L902.919 478.165V477.596C902.919 475.986 902.212 475.417 900.348 475.417C898.543 475.417 897.659 476.006 897.659 477.439V477.517H895.56V477.439C895.56 475.221 897.404 473.553 900.505 473.553C903.606 473.553 904.999 475.241 904.999 477.576V483.503H903.056V481.069H902.919C902.409 482.718 900.858 483.699 898.641 483.699ZM897.463 481.01C897.463 481.795 897.993 482.168 899.21 482.168C901.427 482.168 902.919 481.344 902.919 479.421L899.092 479.853C897.993 479.99 897.463 480.245 897.463 481.01ZM913.289 483.503H911.052C908.952 483.503 907.656 482.58 907.656 480.206V475.515H906.008V473.749H907.656V471.61H909.756V473.749H913.289V475.515H909.756V480.088C909.756 481.285 910.306 481.599 911.523 481.599H913.289V483.503ZM919.521 483.699C916.322 483.699 914.222 481.894 914.222 478.636C914.222 475.594 916.302 473.553 919.482 473.553C922.504 473.553 924.564 475.221 924.564 478.184C924.564 478.538 924.545 478.812 924.486 479.107H916.204C916.283 480.991 917.205 481.992 919.462 481.992C921.503 481.992 922.347 481.324 922.347 480.167V480.01H924.466V480.186C924.466 482.266 922.425 483.699 919.521 483.699ZM919.442 475.221C917.284 475.221 916.342 476.183 916.224 477.929H922.563V477.89C922.563 476.085 921.523 475.221 919.442 475.221ZM931.058 483.699C927.859 483.699 925.759 481.894 925.759 478.636C925.759 475.594 927.84 473.553 931.019 473.553C934.041 473.553 936.102 475.221 936.102 478.184C936.102 478.538 936.082 478.812 936.023 479.107H927.741C927.82 480.991 928.742 481.992 930.999 481.992C933.04 481.992 933.884 481.324 933.884 480.167V480.01H936.004V480.186C936.004 482.266 933.963 483.699 931.058 483.699ZM930.98 475.221C928.821 475.221 927.879 476.183 927.761 477.929H934.1V477.89C934.1 476.085 933.06 475.221 930.98 475.221ZM942.301 483.699C939.161 483.699 937.375 482.463 937.375 480.206V480.147H939.495V480.304C939.495 481.58 940.26 481.992 942.301 481.992C944.205 481.992 944.774 481.599 944.774 480.736C944.774 479.931 944.303 479.676 942.909 479.48L940.24 479.126C938.396 478.891 937.277 478.106 937.277 476.477C937.277 474.77 938.827 473.553 941.83 473.553C944.813 473.553 946.618 474.75 946.618 477.066V477.125H944.519V477.007C944.519 475.849 943.93 475.241 941.771 475.241C939.985 475.241 939.357 475.633 939.357 476.556C939.357 477.321 939.75 477.596 941.222 477.792L943.478 478.106C945.794 478.4 946.854 479.185 946.854 480.795C946.854 482.62 945.048 483.699 942.301 483.699Z" fill="white"/>
<path d="M842.39 333H807.137V328.538C807.137 320.746 810.216 316.85 818.888 313.896L828.942 310.44C833.97 308.618 835.729 306.921 835.729 303.213C835.729 298.752 832.838 296.49 825.298 296.49C816.877 296.49 813.735 299.443 813.735 304.973V305.727H807.074V305.099C807.074 297.306 812.415 290.268 825.549 290.268C837.489 290.268 842.516 295.924 842.516 303.339C842.516 310.252 838.054 313.896 830.639 316.159L821.778 318.861C816.123 320.809 814.175 322.82 814.175 327.596L824.355 326.904H842.39V333ZM865.576 333.628C853.259 333.628 846.598 328.79 846.598 320.306V319.615H853.51V320.306C853.51 325.271 857.281 327.47 865.701 327.47C873.242 327.47 876.698 325.208 876.698 319.301C876.698 313.519 873.368 311.32 865.701 311.32C859.669 311.32 856.149 312.325 853.761 314.462L853.322 314.336V314.462L847.038 314.022L849.3 290.897H881.788V296.992H855.207L853.699 310.754L854.201 310.817C856.338 308.492 861.24 305.916 868.215 305.916C878.018 305.916 883.799 310.629 883.799 319.301C883.799 328.036 877.452 333.628 865.576 333.628Z" fill="white"/>
<path d="M812.516 350.503H810.416V339.258H805.235V337.354H817.678V339.258H812.516V350.503ZM826.454 350.503H818.819V337.354H826.179C828.691 337.354 830.202 338.512 830.202 340.592C830.202 342.143 829.338 343.3 827.337 343.536V343.673C829.574 343.928 830.673 345.145 830.673 346.872C830.673 349.129 829.162 350.503 826.454 350.503ZM820.919 339.258V342.869H825.884C827.356 342.869 828.102 342.3 828.102 341.063C828.102 339.827 827.415 339.258 825.943 339.258H820.919ZM820.919 344.615V348.599H826.218C827.788 348.599 828.553 348.01 828.553 346.578C828.553 345.204 827.768 344.615 826.218 344.615H820.919ZM834.165 350.503H832.046V337.354H834.165V350.503ZM840.74 350.699C837.6 350.699 835.814 349.463 835.814 347.206V347.147H837.933V347.304C837.933 348.58 838.699 348.992 840.74 348.992C842.643 348.992 843.212 348.599 843.212 347.736C843.212 346.931 842.741 346.676 841.348 346.48L838.679 346.126C836.834 345.891 835.716 345.106 835.716 343.477C835.716 341.77 837.266 340.553 840.269 340.553C843.252 340.553 845.057 341.75 845.057 344.066V344.125H842.957V344.007C842.957 342.849 842.368 342.241 840.21 342.241C838.424 342.241 837.796 342.633 837.796 343.556C837.796 344.321 838.188 344.596 839.66 344.792L841.917 345.106C844.233 345.4 845.293 346.185 845.293 347.795C845.293 349.62 843.487 350.699 840.74 350.699ZM847.705 350.895H845.448L852.513 336.962H854.77L847.705 350.895ZM865.025 350.699C860.943 350.699 858.235 348.03 858.235 343.928C858.235 339.827 860.943 337.158 865.025 337.158C868.734 337.158 871.325 339.12 871.325 342.26V342.535H868.989V342.26C868.989 340.259 867.714 339.179 865.045 339.179C861.964 339.179 860.472 340.651 860.472 343.928C860.472 347.206 861.964 348.658 865.045 348.658C867.714 348.658 868.989 347.598 868.989 345.577V345.322H871.325V345.577C871.325 348.737 868.754 350.699 865.025 350.699ZM877.871 350.699C874.633 350.699 872.454 348.638 872.454 345.636C872.454 342.594 874.633 340.553 877.871 340.553C881.128 340.553 883.307 342.594 883.307 345.636C883.307 348.638 881.128 350.699 877.871 350.699ZM877.871 348.815C880.245 348.815 881.227 347.696 881.227 345.636C881.227 343.556 880.245 342.417 877.871 342.417C875.516 342.417 874.535 343.556 874.535 345.636C874.535 347.696 875.516 348.815 877.871 348.815ZM889.516 350.503H886.886L883.962 340.749H886.16L887.789 346.283L888.24 348.795H888.397L889.123 346.087L891.164 340.749H893.872L895.933 346.087L896.659 348.795H896.816L897.267 346.283L898.896 340.749H901.055L898.092 350.503H895.462L893.323 344.89L892.577 342.496H892.42L891.674 344.89L889.516 350.503ZM907.116 350.699C903.878 350.699 901.7 348.638 901.7 345.636C901.7 342.594 903.878 340.553 907.116 340.553C910.374 340.553 912.553 342.594 912.553 345.636C912.553 348.638 910.374 350.699 907.116 350.699ZM907.116 348.815C909.491 348.815 910.472 347.696 910.472 345.636C910.472 343.556 909.491 342.417 907.116 342.417C904.761 342.417 903.78 343.556 903.78 345.636C903.78 347.696 904.761 348.815 907.116 348.815ZM916.21 350.503H914.091V340.749H916.033V343.379H916.171C916.465 341.809 917.525 340.553 919.527 340.553C921.744 340.553 922.706 342.143 922.706 343.987V345.263H920.606V344.399C920.606 343.006 920.017 342.358 918.565 342.358C916.897 342.358 916.21 343.281 916.21 345.027V350.503ZM926.157 350.503H924.037V337.354H926.157V344.615H928.943L931.868 340.749H934.34L930.67 345.44L934.321 350.503H931.828L928.943 346.519H926.157V350.503ZM939.995 350.699C936.855 350.699 935.069 349.463 935.069 347.206V347.147H937.188V347.304C937.188 348.58 937.954 348.992 939.995 348.992C941.898 348.992 942.467 348.599 942.467 347.736C942.467 346.931 941.996 346.676 940.603 346.48L937.934 346.126C936.089 345.891 934.971 345.106 934.971 343.477C934.971 341.77 936.521 340.553 939.524 340.553C942.507 340.553 944.312 341.75 944.312 344.066V344.125H942.212V344.007C942.212 342.849 941.624 342.241 939.465 342.241C937.679 342.241 937.051 342.633 937.051 343.556C937.051 344.321 937.443 344.596 938.915 344.792L941.172 345.106C943.488 345.4 944.548 346.185 944.548 347.795C944.548 349.62 942.742 350.699 939.995 350.699Z" fill="white"/>
<path d="M842.39 243H807.137V238.538C807.137 230.746 810.216 226.85 818.888 223.896L828.942 220.44C833.97 218.618 835.729 216.921 835.729 213.213C835.729 208.752 832.838 206.49 825.298 206.49C816.877 206.49 813.735 209.443 813.735 214.973V215.727H807.074V215.099C807.074 207.306 812.415 200.268 825.549 200.268C837.489 200.268 842.516 205.924 842.516 213.339C842.516 220.252 838.054 223.896 830.639 226.159L821.778 228.861C816.123 230.809 814.175 232.82 814.175 237.596L824.355 236.904H842.39V243ZM865.576 243.628C853.259 243.628 846.598 238.79 846.598 230.306V229.615H853.51V230.306C853.51 235.271 857.281 237.47 865.701 237.47C873.242 237.47 876.698 235.208 876.698 229.301C876.698 223.519 873.368 221.32 865.701 221.32C859.669 221.32 856.149 222.325 853.761 224.462L853.322 224.336V224.462L847.038 224.022L849.3 200.897H881.788V206.992H855.207L853.699 220.754L854.201 220.817C856.338 218.492 861.24 215.916 868.215 215.916C878.018 215.916 883.799 220.629 883.799 229.301C883.799 238.036 877.452 243.628 865.576 243.628ZM908.126 243.628C895.432 243.628 887.891 235.333 887.891 221.948C887.891 208.626 895.432 200.268 908.126 200.268C920.819 200.268 928.36 208.626 928.36 221.948C928.36 235.333 920.819 243.628 908.126 243.628ZM908.126 237.093C917.112 237.093 921.134 232.443 921.134 221.948C921.134 211.454 917.112 206.804 908.126 206.804C899.139 206.804 895.055 211.454 895.055 221.948C895.055 232.443 899.139 237.093 908.126 237.093ZM948.476 235.019H942.569V224.776H932.451V219.121H942.569V208.877H948.476V219.121H958.593V224.776H948.476V235.019Z" fill="white"/>
<path d="M811.496 260.699C807.571 260.699 805.569 258.972 805.569 256.205V256.087H807.689V256.401C807.689 257.971 808.611 258.756 811.496 258.756C814.008 258.756 814.891 258.207 814.891 256.97C814.891 255.832 814.224 255.4 812.556 255.086L809.337 254.556C807.119 254.164 805.549 253.143 805.549 250.985C805.549 249.081 807.119 247.158 811.201 247.158C815.048 247.158 816.795 249.081 816.795 251.652V251.77H814.695V251.515C814.695 249.905 813.733 249.101 811.005 249.101C808.611 249.101 807.669 249.689 807.669 250.867C807.669 252.005 808.336 252.378 809.887 252.712L813.085 253.261C815.715 253.732 817.01 254.929 817.01 256.853C817.01 258.854 815.382 260.699 811.496 260.699ZM824.913 260.503H822.676C820.576 260.503 819.28 259.58 819.28 257.206V252.515H817.632V250.749H819.28V248.61H821.38V250.749H824.913V252.515H821.38V257.088C821.38 258.285 821.93 258.599 823.147 258.599H824.913V260.503ZM829.104 260.699C827.082 260.699 825.807 259.757 825.807 258.148C825.807 256.637 827.024 255.852 828.947 255.636L833.382 255.165V254.596C833.382 252.986 832.676 252.417 830.811 252.417C829.006 252.417 828.123 253.006 828.123 254.439V254.517H826.023V254.439C826.023 252.221 827.867 250.553 830.968 250.553C834.069 250.553 835.462 252.241 835.462 254.576V260.503H833.519V258.069H833.382C832.872 259.718 831.321 260.699 829.104 260.699ZM827.926 258.01C827.926 258.795 828.456 259.168 829.673 259.168C831.891 259.168 833.382 258.344 833.382 256.421L829.555 256.853C828.456 256.99 827.926 257.245 827.926 258.01ZM839.474 260.503H837.354V250.749H839.297V253.379H839.434C839.729 251.809 840.789 250.553 842.79 250.553C845.008 250.553 845.97 252.143 845.97 253.987V255.263H843.87V254.399C843.87 253.006 843.281 252.358 841.829 252.358C840.161 252.358 839.474 253.281 839.474 255.027V260.503ZM853.699 260.503H851.461C849.361 260.503 848.066 259.58 848.066 257.206V252.515H846.418V250.749H848.066V248.61H850.166V250.749H853.699V252.515H850.166V257.088C850.166 258.285 850.716 258.599 851.932 258.599H853.699V260.503ZM859.087 260.699C856.339 260.699 855.005 258.874 855.005 256.617V250.749H857.105V256.048C857.105 257.873 857.948 258.795 860.009 258.795C862.168 258.795 863.169 257.696 863.169 255.577V250.749H865.268V260.503H863.326V257.481H863.208C862.894 259.129 861.599 260.699 859.087 260.699ZM869.314 263.839H867.194V250.749H869.137V253.457H869.314C869.706 251.652 871.08 250.553 873.376 250.553C876.398 250.553 878.105 252.614 878.105 255.636C878.105 258.658 876.437 260.699 873.396 260.699C871.198 260.699 869.785 259.541 869.392 257.755H869.314V263.839ZM869.314 255.793C869.314 257.795 870.589 258.776 872.669 258.776C874.769 258.776 875.986 257.971 875.986 255.636C875.986 253.281 874.75 252.496 872.709 252.496C870.53 252.496 869.314 253.516 869.314 255.616V255.793ZM884.186 260.699C881.046 260.699 879.261 259.463 879.261 257.206V257.147H881.38V257.304C881.38 258.58 882.145 258.992 884.186 258.992C886.09 258.992 886.659 258.599 886.659 257.736C886.659 256.931 886.188 256.676 884.795 256.48L882.126 256.126C880.281 255.891 879.162 255.106 879.162 253.477C879.162 251.77 880.713 250.553 883.715 250.553C886.698 250.553 888.504 251.75 888.504 254.066V254.125H886.404V254.007C886.404 252.849 885.815 252.241 883.657 252.241C881.871 252.241 881.243 252.633 881.243 253.556C881.243 254.321 881.635 254.596 883.107 254.792L885.364 255.106C887.68 255.4 888.739 256.185 888.739 257.795C888.739 259.62 886.934 260.699 884.186 260.699Z" fill="white"/>
<path d="M263.369 118H252.887V68.5036H236.971V61.0307H240.076C247.258 61.0307 251.334 59.1867 254.149 52.9754H263.369V118ZM322.088 118H311.703V104.801H270.165V97.5221L309.956 52.9754H322.088V95.387H333.249V104.801H322.088V118ZM284.626 95.387H311.703V65.2039H310.927L284.626 94.6105V95.387Z" fill="white"/>
<path d="M246.679 146.551C240.771 146.551 236.852 142.688 236.852 136.753C236.852 130.817 240.771 126.954 246.679 126.954C252.047 126.954 255.796 129.794 255.796 134.338V134.736H252.416V134.338C252.416 131.442 250.57 129.879 246.707 129.879C242.248 129.879 240.09 132.01 240.09 136.753C240.09 141.496 242.248 143.597 246.707 143.597C250.57 143.597 252.416 142.064 252.416 139.138V138.769H255.796V139.138C255.796 143.711 252.075 146.551 246.679 146.551ZM261.123 146.267H258.056V127.238H261.123V146.267ZM269.842 146.551C265.866 146.551 263.935 143.91 263.935 140.644V132.152H266.974V139.82C266.974 142.461 268.195 143.796 271.177 143.796C274.301 143.796 275.75 142.206 275.75 139.138V132.152H278.789V146.267H275.977V141.893H275.807C275.352 144.279 273.478 146.551 269.842 146.551ZM288.25 146.551C283.706 146.551 281.121 144.762 281.121 141.496V141.41H284.188V141.638C284.188 143.484 285.296 144.08 288.25 144.08C291.005 144.08 291.828 143.512 291.828 142.262C291.828 141.098 291.147 140.729 289.13 140.445L285.268 139.934C282.598 139.593 280.979 138.457 280.979 136.099C280.979 133.628 283.223 131.868 287.568 131.868C291.885 131.868 294.498 133.6 294.498 136.951V137.037H291.459V136.866C291.459 135.19 290.607 134.31 287.483 134.31C284.899 134.31 283.99 134.878 283.99 136.213C283.99 137.321 284.558 137.718 286.688 138.002L289.954 138.457C293.305 138.883 294.839 140.019 294.839 142.348C294.839 144.989 292.226 146.551 288.25 146.551ZM306.311 146.267H303.073C300.034 146.267 298.16 144.932 298.16 141.496V134.708H295.774V132.152H298.16V129.056H301.199V132.152H306.311V134.708H301.199V141.325C301.199 143.058 301.994 143.512 303.755 143.512H306.311V146.267ZM315.33 146.551C310.701 146.551 307.662 143.938 307.662 139.224C307.662 134.821 310.672 131.868 315.273 131.868C319.647 131.868 322.629 134.282 322.629 138.57C322.629 139.082 322.601 139.479 322.516 139.905H310.53C310.644 142.632 311.979 144.08 315.245 144.08C318.199 144.08 319.42 143.115 319.42 141.439V141.212H322.487V141.467C322.487 144.478 319.534 146.551 315.33 146.551ZM315.216 134.282C312.092 134.282 310.729 135.673 310.559 138.201H319.732V138.144C319.732 135.531 318.227 134.282 315.216 134.282ZM327.994 146.267H324.927V132.152H327.738V135.957H327.937C328.363 133.685 329.897 131.868 332.794 131.868C336.003 131.868 337.395 134.168 337.395 136.838V138.684H334.356V137.434C334.356 135.418 333.504 134.48 331.402 134.48C328.988 134.48 327.994 135.815 327.994 138.343V146.267ZM345.996 146.551C341.452 146.551 338.867 144.762 338.867 141.496V141.41H341.935V141.638C341.935 143.484 343.042 144.08 345.996 144.08C348.751 144.08 349.575 143.512 349.575 142.262C349.575 141.098 348.893 140.729 346.876 140.445L343.014 139.934C340.344 139.593 338.725 138.457 338.725 136.099C338.725 133.628 340.969 131.868 345.314 131.868C349.631 131.868 352.244 133.6 352.244 136.951V137.037H349.205V136.866C349.205 135.19 348.353 134.31 345.229 134.31C342.645 134.31 341.736 134.878 341.736 136.213C341.736 137.321 342.304 137.718 344.434 138.002L347.7 138.457C351.051 138.883 352.585 140.019 352.585 142.348C352.585 144.989 349.972 146.551 345.996 146.551Z" fill="white"/>
<path d="M57.146 99.0734H48.1937C48.1937 76.2523 59.7143 65.3187 69.7674 57.5404V56.9534H37.5536V49.8355H78.206V56.2196C64.0437 69.061 57.146 79.6277 57.146 99.0734ZM104.427 99.7338C89.6046 99.7338 80.799 90.0477 80.799 74.4178C80.799 58.8612 89.6046 49.1017 104.427 49.1017C119.25 49.1017 128.056 58.8612 128.056 74.4178C128.056 90.0477 119.25 99.7338 104.427 99.7338ZM104.427 92.1023C114.921 92.1023 119.617 86.6722 119.617 74.4178C119.617 62.1633 114.921 56.7332 104.427 56.7332C93.934 56.7332 89.1643 62.1633 89.1643 74.4178C89.1643 86.6722 93.934 92.1023 104.427 92.1023ZM151.545 89.6808H144.647V77.7198H132.833V71.1157H144.647V59.1547H151.545V71.1157H163.359V77.7198H151.545V89.6808Z" fill="white"/>
<path d="M38.0743 123.215C33.6076 123.215 30.6442 120.294 30.6442 115.806C30.6442 111.318 33.6076 108.398 38.0743 108.398C42.1329 108.398 44.9674 110.545 44.9674 113.981V114.282H42.412V113.981C42.412 111.791 41.0162 110.609 38.0957 110.609C34.7243 110.609 33.0923 112.22 33.0923 115.806C33.0923 119.392 34.7243 120.981 38.0957 120.981C41.0162 120.981 42.412 119.822 42.412 117.61V117.331H44.9674V117.61C44.9674 121.067 42.1543 123.215 38.0743 123.215ZM48.9952 123H46.676V108.612H48.9952V123ZM55.5879 123.215C52.5815 123.215 51.1213 121.218 51.1213 118.748V112.327H53.419V118.125C53.419 120.122 54.3424 121.132 56.5972 121.132C58.9593 121.132 60.0545 119.929 60.0545 117.61V112.327H62.3522V123H60.2263V119.693H60.0975C59.7539 121.497 58.3366 123.215 55.5879 123.215ZM69.5056 123.215C66.0698 123.215 64.1156 121.862 64.1156 119.392V119.328H66.4348V119.5C66.4348 120.896 67.2723 121.346 69.5056 121.346C71.5886 121.346 72.2114 120.917 72.2114 119.972C72.2114 119.092 71.696 118.813 70.1713 118.598L67.2509 118.211C65.2323 117.954 64.0083 117.095 64.0083 115.312C64.0083 113.444 65.7047 112.113 68.9903 112.113C72.2543 112.113 74.2299 113.423 74.2299 115.956V116.021H71.9322V115.892C71.9322 114.625 71.288 113.959 68.9258 113.959C66.9717 113.959 66.2845 114.389 66.2845 115.398C66.2845 116.236 66.714 116.536 68.3246 116.751L70.7941 117.095C73.328 117.417 74.4876 118.276 74.4876 120.037C74.4876 122.034 72.512 123.215 69.5056 123.215ZM83.1615 123H80.7134C78.4157 123 76.9984 121.991 76.9984 119.392V114.26H75.1946V112.327H76.9984V109.987H79.2962V112.327H83.1615V114.26H79.2962V119.264C79.2962 120.573 79.8974 120.917 81.2288 120.917H83.1615V123ZM89.9807 123.215C86.4804 123.215 84.1827 121.239 84.1827 117.674C84.1827 114.346 86.4589 112.113 89.9377 112.113C93.2448 112.113 95.4995 113.938 95.4995 117.181C95.4995 117.567 95.4781 117.868 95.4136 118.19H86.3516C86.4375 120.251 87.4467 121.346 89.9163 121.346C92.1496 121.346 93.073 120.616 93.073 119.349V119.178H95.3922V119.371C95.3922 121.647 93.1589 123.215 89.9807 123.215ZM89.8948 113.938C87.5326 113.938 86.5019 114.99 86.373 116.901H93.3092V116.858C93.3092 114.883 92.171 113.938 89.8948 113.938ZM99.5558 123H97.2366V112.327H99.3625V115.205H99.5128C99.835 113.487 100.995 112.113 103.185 112.113C105.611 112.113 106.664 113.852 106.664 115.871V117.266H104.366V116.322C104.366 114.797 103.722 114.088 102.133 114.088C100.307 114.088 99.5558 115.098 99.5558 117.009V123ZM38.0743 149.215C33.6076 149.215 30.6442 146.294 30.6442 141.806C30.6442 137.318 33.6076 134.398 38.0743 134.398C42.1329 134.398 44.9674 136.545 44.9674 139.981V140.282H42.412V139.981C42.412 137.791 41.0162 136.609 38.0957 136.609C34.7243 136.609 33.0923 138.22 33.0923 141.806C33.0923 145.392 34.7243 146.981 38.0957 146.981C41.0162 146.981 42.412 145.822 42.412 143.61V143.331H44.9674V143.61C44.9674 147.067 42.1543 149.215 38.0743 149.215ZM52.1304 149.215C48.5872 149.215 46.2036 146.96 46.2036 143.674C46.2036 140.346 48.5872 138.113 52.1304 138.113C55.6951 138.113 58.0787 140.346 58.0787 143.674C58.0787 146.96 55.6951 149.215 52.1304 149.215ZM52.1304 147.153C54.7288 147.153 55.8025 145.929 55.8025 143.674C55.8025 141.398 54.7288 140.153 52.1304 140.153C49.5535 140.153 48.4798 141.398 48.4798 143.674C48.4798 145.929 49.5535 147.153 52.1304 147.153ZM65.2162 149.215C61.673 149.215 59.2893 146.96 59.2893 143.674C59.2893 140.346 61.673 138.113 65.2162 138.113C68.7809 138.113 71.1645 140.346 71.1645 143.674C71.1645 146.96 68.7809 149.215 65.2162 149.215ZM65.2162 147.153C67.8146 147.153 68.8883 145.929 68.8883 143.674C68.8883 141.398 67.8146 140.153 65.2162 140.153C62.6393 140.153 61.5656 141.398 61.5656 143.674C61.5656 145.929 62.6393 147.153 65.2162 147.153ZM75.1667 149H72.8475V138.327H74.9735V141.205H75.1238C75.4459 139.487 76.6055 138.113 78.7959 138.113C81.2224 138.113 82.2747 139.852 82.2747 141.871V143.266H79.9769V142.322C79.9769 140.797 79.3327 140.088 77.7436 140.088C75.9183 140.088 75.1667 141.098 75.1667 143.009V149ZM88.4342 149.215C85.0628 149.215 83.1945 146.96 83.1945 143.674C83.1945 140.346 85.0413 138.113 88.2839 138.113C90.8178 138.113 92.2566 139.423 92.6861 141.226H92.8149V134.612H95.1341V149H93.0082V145.929H92.8579C92.4069 148.055 90.8393 149.215 88.4342 149.215ZM85.5352 143.674C85.5352 146.23 86.8451 147.089 89.1429 147.089C91.4191 147.089 92.8149 146.015 92.8149 143.782V143.61C92.8149 141.334 91.4835 140.217 89.0999 140.217C86.8666 140.217 85.5352 141.098 85.5352 143.674ZM99.5977 137.082H97.2785V134.612H99.5977V137.082ZM99.5977 149H97.2785V138.327H99.5977V149ZM104.065 149H101.745V138.327H103.871V141.634H104.022C104.344 139.831 105.761 138.113 108.467 138.113C111.43 138.113 112.89 140.11 112.89 142.579V149H110.571V143.202C110.571 141.205 109.669 140.196 107.457 140.196C105.117 140.196 104.065 141.398 104.065 143.717V149ZM118.092 149.215C115.88 149.215 114.484 148.184 114.484 146.423C114.484 144.77 115.816 143.911 117.92 143.674L122.773 143.159V142.536C122.773 140.775 122 140.153 119.96 140.153C117.985 140.153 117.018 140.797 117.018 142.365V142.45H114.721V142.365C114.721 139.938 116.739 138.113 120.132 138.113C123.525 138.113 125.05 139.959 125.05 142.515V149H122.924V146.337H122.773C122.215 148.141 120.519 149.215 118.092 149.215ZM116.804 146.273C116.804 147.132 117.383 147.54 118.715 147.54C121.141 147.54 122.773 146.638 122.773 144.533L118.586 145.006C117.383 145.156 116.804 145.435 116.804 146.273ZM134.121 149H131.672C129.375 149 127.957 147.991 127.957 145.392V140.26H126.154V138.327H127.957V135.987H130.255V138.327H134.121V140.26H130.255V145.264C130.255 146.573 130.856 146.917 132.188 146.917H134.121V149ZM141.026 149.215C137.482 149.215 135.099 146.96 135.099 143.674C135.099 140.346 137.482 138.113 141.026 138.113C144.59 138.113 146.974 140.346 146.974 143.674C146.974 146.96 144.59 149.215 141.026 149.215ZM141.026 147.153C143.624 147.153 144.698 145.929 144.698 143.674C144.698 141.398 143.624 140.153 141.026 140.153C138.449 140.153 137.375 141.398 137.375 143.674C137.375 145.929 138.449 147.153 141.026 147.153ZM150.976 149H148.657V138.327H150.783V141.205H150.933C151.255 139.487 152.415 138.113 154.605 138.113C157.032 138.113 158.084 139.852 158.084 141.871V143.266H155.786V142.322C155.786 140.797 155.142 140.088 153.553 140.088C151.728 140.088 150.976 141.098 150.976 143.009V149ZM164.587 149.215C161.151 149.215 159.197 147.862 159.197 145.392V145.328H161.516V145.5C161.516 146.896 162.354 147.346 164.587 147.346C166.67 147.346 167.293 146.917 167.293 145.972C167.293 145.092 166.778 144.813 165.253 144.598L162.332 144.211C160.314 143.954 159.09 143.095 159.09 141.312C159.09 139.444 160.786 138.113 164.072 138.113C167.336 138.113 169.312 139.423 169.312 141.956V142.021H167.014V141.892C167.014 140.625 166.37 139.959 164.007 139.959C162.053 139.959 161.366 140.389 161.366 141.398C161.366 142.236 161.796 142.536 163.406 142.751L165.876 143.095C168.41 143.417 169.569 144.276 169.569 146.037C169.569 148.034 167.594 149.215 164.587 149.215Z" fill="white"/>
<path d="M657.982 123H647.265V72.3947H630.992V64.7543H634.167C641.51 64.7543 645.678 62.869 648.555 56.5185H657.982V123ZM695.581 123H684.865V56.5185H695.581V123ZM719.992 123.992C709.772 123.992 703.322 119.229 703.322 111.093C703.322 103.452 709.474 99.4834 719.198 98.3919L741.623 96.0105V93.1329C741.623 84.9964 738.051 82.1189 728.625 82.1189C719.496 82.1189 715.031 85.0956 715.031 92.3391V92.736H704.413V92.3391C704.413 81.1266 713.741 72.6924 729.418 72.6924C745.096 72.6924 752.141 81.2258 752.141 93.0337V123H742.318V110.696H741.623C739.043 119.031 731.204 123.992 719.992 123.992ZM714.038 110.398C714.038 114.367 716.717 116.253 722.869 116.253C734.082 116.253 741.623 112.085 741.623 102.361L722.274 104.544C716.717 105.239 714.038 106.528 714.038 110.398ZM772.424 123H761.707V56.5185H772.424V93.2322H786.514L801.298 73.6846H813.801L795.246 97.3997L813.702 123H801.1L786.514 102.857H772.424V123ZM829.789 123H819.072V56.5185H829.789V88.767H830.384C832.071 80.432 838.124 72.6924 850.725 72.6924C864.319 72.6924 870.967 81.6227 870.967 93.6291V123H860.35V96.209C860.35 86.2864 855.885 82.3173 845.665 82.3173C833.956 82.3173 829.789 88.6678 829.789 99.0865V123ZM921.376 110.398H912.049V94.2244H896.073V85.2941H912.049V69.1202H921.376V85.2941H937.351V94.2244H921.376V110.398Z" fill="white"/>
<path d="M634.588 143.473H631.452V124.018H634.588V143.473ZM640.628 143.473H637.492V129.041H640.367V133.513H640.57C641.006 131.074 642.922 128.751 646.581 128.751C650.588 128.751 652.563 131.451 652.563 134.791V143.473H649.427V135.633C649.427 132.932 648.207 131.567 645.216 131.567C642.051 131.567 640.628 133.194 640.628 136.33V143.473ZM658.493 143.473H655.357V129.041H658.232V133.513H658.435C658.871 131.074 660.787 128.751 664.446 128.751C668.453 128.751 670.428 131.451 670.428 134.791V143.473H667.292V135.633C667.292 132.932 666.072 131.567 663.081 131.567C659.916 131.567 658.493 133.194 658.493 136.33V143.473ZM680.598 143.763C675.806 143.763 672.583 140.714 672.583 136.272C672.583 131.771 675.806 128.751 680.598 128.751C685.418 128.751 688.641 131.771 688.641 136.272C688.641 140.714 685.418 143.763 680.598 143.763ZM680.598 140.976C684.111 140.976 685.563 139.32 685.563 136.272C685.563 133.194 684.111 131.509 680.598 131.509C677.113 131.509 675.661 133.194 675.661 136.272C675.661 139.32 677.113 140.976 680.598 140.976ZM700.18 143.473H696.347L689.61 129.041H693.066L698.206 140.424H698.438L703.578 129.041H706.975L700.18 143.473ZM712.823 143.763C709.832 143.763 707.945 142.369 707.945 139.988C707.945 137.752 709.745 136.591 712.591 136.272L719.153 135.575V134.733C719.153 132.351 718.108 131.509 715.349 131.509C712.678 131.509 711.371 132.38 711.371 134.5V134.616H708.264V134.5C708.264 131.219 710.994 128.751 715.582 128.751C720.17 128.751 722.231 131.248 722.231 134.703V143.473H719.357V139.872H719.153C718.398 142.311 716.104 143.763 712.823 143.763ZM711.081 139.785C711.081 140.947 711.865 141.498 713.665 141.498C716.947 141.498 719.153 140.279 719.153 137.433L713.491 138.072C711.865 138.275 711.081 138.653 711.081 139.785ZM734.497 143.473H731.187C728.08 143.473 726.163 142.108 726.163 138.595V131.655H723.724V129.041H726.163V125.876H729.27V129.041H734.497V131.655H729.27V138.42C729.27 140.192 730.083 140.656 731.884 140.656H734.497V143.473ZM743.834 143.763C739.043 143.763 735.82 140.714 735.82 136.272C735.82 131.771 739.043 128.751 743.834 128.751C748.655 128.751 751.878 131.771 751.878 136.272C751.878 140.714 748.655 143.763 743.834 143.763ZM743.834 140.976C747.348 140.976 748.8 139.32 748.8 136.272C748.8 133.194 747.348 131.509 743.834 131.509C740.35 131.509 738.898 133.194 738.898 136.272C738.898 139.32 740.35 140.976 743.834 140.976ZM757.29 143.473H754.154V129.041H757.028V132.932H757.232C757.667 130.609 759.235 128.751 762.197 128.751C765.478 128.751 766.901 131.103 766.901 133.832V135.72H763.794V134.442C763.794 132.38 762.923 131.422 760.774 131.422C758.306 131.422 757.29 132.787 757.29 135.371V143.473ZM775.695 143.763C771.049 143.763 768.407 141.934 768.407 138.595V138.507H771.543V138.74C771.543 140.627 772.675 141.237 775.695 141.237C778.512 141.237 779.354 140.656 779.354 139.379C779.354 138.188 778.657 137.811 776.595 137.52L772.646 136.997C769.917 136.649 768.261 135.487 768.261 133.077C768.261 130.551 770.555 128.751 774.998 128.751C779.412 128.751 782.083 130.522 782.083 133.948V134.036H778.976V133.861C778.976 132.148 778.105 131.248 774.911 131.248C772.269 131.248 771.339 131.829 771.339 133.194C771.339 134.326 771.92 134.733 774.098 135.023L777.437 135.487C780.864 135.923 782.432 137.085 782.432 139.466C782.432 142.166 779.76 143.763 775.695 143.763Z" fill="white"/>
</svg>
